<svg width="300" height="178" viewBox="0 0 300 178" fill="none" xmlns="http://www.w3.org/2000/svg">
<path fill-rule="evenodd" clip-rule="evenodd" d="M73.5092 29.1179C78.6785 24.6107 84.4125 20.4938 90.6598 16.8645V16.8696C114.037 3.28152 141.978 -2.38574 169.324 0.92016C187.419 3.10698 203.846 9.05145 217.367 18.1221C217.096 18.2961 216.561 18.4792 215.755 18.755C214.562 19.163 212.777 19.774 210.376 20.8582C194.2 11.1099 174.791 6.04841 154.15 6.04841C133.508 6.04841 112.307 11.2639 93.6937 22.0851C89.3508 24.6107 85.2749 27.3776 81.4813 30.355C79.1251 29.8468 76.5943 29.4259 73.5092 29.1179ZM243.245 55.3648C243.245 55.3648 243.491 60.5958 245.801 62.5413V62.5465C247.095 63.6347 247.901 65.416 247.105 65.9807C246.954 66.0869 246.758 66.0558 246.546 66.0222C246.528 66.0193 246.51 66.0165 246.492 66.0137C246.475 66.0112 246.459 66.0087 246.443 66.0064C246.448 66.0218 246.412 65.991 246.412 65.991C242.059 64.8257 238.45 64.7127 235.17 64.9848C232.736 65.2672 231.227 65.3955 229.194 65.5084C217.116 66.1706 213.568 60.7549 213.209 58.4705L209.128 32.4289C208.794 30.3191 211.063 25.2883 223.173 24.7955C224.795 24.7339 226.268 24.7647 227.603 24.8674L225.56 11.8389C225.498 11.4795 225.437 11.1869 225.385 10.9919C225.215 10.3603 224.733 10.1831 224.256 10.0078C223.926 9.88671 223.599 9.76649 223.378 9.49804C223.06 9.11304 223.04 7.35742 224.816 7.36768C226.592 7.37795 231.915 5.17059 233.234 4.53919C234.554 3.90265 235.216 4.20552 235.488 6.10487C235.76 8.00422 243.245 55.3648 243.245 55.3648ZM228.63 59.6102C231.042 59.5075 232.721 57.526 232.357 55.1954L229.092 34.3642C228.727 32.0336 226.453 30.2113 224.041 30.3088C221.628 30.4063 219.949 32.3929 220.314 34.7235L223.579 55.5548C223.943 57.8853 226.217 59.7077 228.63 59.6102ZM135.274 69.2917C135.274 69.2917 129.489 31.4535 128.837 27.2287C128.549 25.3961 127.939 25.1651 126.681 25.9351C125.423 26.7051 120.341 29.4617 118.647 29.6414C116.953 29.8262 116.984 31.5407 117.276 31.8949C117.422 32.0736 117.696 32.1493 117.995 32.2319C118.478 32.3654 119.025 32.5165 119.196 33.1475C119.248 33.3323 119.304 33.6146 119.366 33.9585L125.233 70.9549L125.254 71.0883C125.372 71.9764 125.521 73.5472 125.29 74.3429C124.956 75.4928 125.136 76.0985 126.368 75.6314C127.6 75.1643 130.762 74.1838 134.751 72.9723C135.239 72.8243 135.689 72.7198 136.077 72.6298C136.98 72.4201 137.545 72.2888 137.476 71.8686C137.443 71.665 137.224 71.5275 136.929 71.343C136.407 71.0157 135.648 70.5405 135.274 69.2865V69.2917ZM75.3316 35.663C76.2248 35.8016 78.2319 36.089 79.4999 36.1301L79.505 36.1147C81.1733 36.1712 81.507 37.3467 80.9475 38.0294C80.8589 38.1376 80.7486 38.2574 80.6265 38.3901C79.9775 39.0957 78.9928 40.1661 79.1354 41.782C79.1457 41.9308 79.1867 42.3056 79.2637 42.8497L82.9444 66.3503C83.1548 67.336 82.621 71.1963 76.0143 74.4662C71.4918 76.7044 67.6109 77.4179 65.5679 77.6438C64.9724 77.7465 64.4488 77.7875 64.033 77.7516C62.1285 77.5925 62.0156 77.8594 62.1952 78.999C62.2055 79.0606 64.2486 91.9351 64.5463 93.8242C64.5668 93.9834 64.5925 94.8458 63.8687 95.0665C59.1409 96.7246 55.4602 99.5274 52.2262 102.469C51.2765 103.203 49.4028 103.927 49.1975 103.234C48.8792 102.161 48.8792 101.689 49.4593 101.139C50.8761 99.7995 51.4613 98.3724 51.4921 97.356C51.5024 96.971 51.4818 96.5603 51.4408 96.1497C51.4408 96.1497 44.947 54.4255 44.4234 51.0734C44.1565 49.3794 41.5949 47.8855 40.5939 47.5467C39.6904 47.2439 39.7828 46.2223 41.1124 45.7706C42.3495 45.3497 43.9974 44.3332 46.0199 42.7932C53.8175 36.8642 64.1972 33.2349 75.3316 35.663ZM65.4909 70.9909C68.8738 70.031 69.9672 68.0598 69.7721 66.6327H69.767L66.1993 43.8507C65.7886 42.4031 62.878 41.8487 61.0915 42.3569C59.2435 42.8805 56.8565 44.4205 57.2158 46.8486C57.6265 49.636 58.0192 52.308 58.4119 54.9799C58.8046 57.6518 59.1973 60.3237 59.608 63.1112L60.6193 69.5638C61.2199 71.2938 63.186 71.6429 65.4909 70.9909ZM115.403 46.2892C115.926 49.4565 119.243 70.565 119.268 70.7447L119.263 70.7396L119.271 70.7882L119.29 70.91C119.483 72.1095 119.748 73.7589 118.098 75.6933C115.28 78.9992 111.06 81.2065 105.957 83.0443C100.855 84.882 95.5212 84.533 93.0674 84.0504C90.5442 83.5579 90.0733 80.5357 89.8764 79.2726L89.8642 79.1942C89.5459 77.2641 86.317 57.1617 86.1271 55.8271C85.701 52.8035 86.1579 51.4688 87.7338 49.5181L87.7845 49.4556L87.8743 49.3445C89.2516 47.6387 91.466 44.8961 99.0221 42.47C105.393 40.4218 110.126 41.5203 112.025 42.1466C114.037 42.8088 114.889 43.1835 115.403 46.2892ZM99.9872 74.8052C100.588 77.6388 102.59 78.2548 104.92 77.5516L104.926 77.5567C107.482 76.7867 108.863 75.4109 108.832 72.567C108.807 70.4586 106.741 58.358 105.864 53.2243L105.864 53.2234C105.658 52.0206 105.518 51.2004 105.485 50.9811C105.136 48.6917 103.478 47.0079 100.234 48.204C100.234 48.204 96.1269 49.2717 96.7789 53.4914C97.169 56.0119 99.9872 74.8052 99.9872 74.8052ZM172.481 64.3273C173.02 64.5224 173.585 64.8355 173.692 65.2154L173.703 65.2205C173.816 65.6158 173.841 66.2421 173.056 66.2318C169.601 66.1805 167.271 66.2934 163.754 67.1455C162.905 67.3514 161.912 67.6495 160.818 67.9777L160.818 67.9778C158.148 68.7793 154.879 69.7602 151.66 70.0151C142.353 70.7543 139.247 66.0111 138.303 59.2504C137.949 56.7094 138.996 54.5944 140.012 53.0647C140.084 52.9312 140.151 52.8182 140.218 52.7156C141.804 50.6263 144.252 48.8861 147.189 47.9313C148.095 47.6364 149.049 47.4067 149.985 47.1811C152.653 46.5388 155.183 45.9296 156.08 43.9426C156.824 42.2897 156.598 40.7086 156.342 39.8872C155.849 37.7056 153.703 36.2169 151.429 36.5454C149.93 36.761 147.676 38.0444 147.923 40.8113C147.943 41.2835 148.036 41.9817 148.144 42.7671C145.962 43.4755 140.885 45.1284 138.046 47.6592C137.553 47.9518 137.148 48.0596 136.927 47.7516C136.684 47.4144 136.865 46.6604 137.063 45.8382C137.241 45.0959 137.433 44.2981 137.338 43.7014C137.297 43.4498 136.763 39.8513 136.763 39.8513C136.424 37.7364 138.647 31.6892 150.51 29.9644C162.373 28.2396 165.823 33.3884 166.213 35.7446C166.481 37.3641 168.149 47.8573 169.255 54.8208L169.274 54.9379L169.276 54.9489L169.276 54.9505L169.289 55.0311C169.776 58.0959 170.148 60.4376 170.232 60.9649C170.499 62.6333 171.423 63.9474 172.476 64.3222L172.481 64.3273ZM148.457 59.2658C149.299 62.9259 152.964 63.6651 155.962 62.3099L155.967 62.3047C160.813 60.1128 158.097 50.7084 157.461 51.1499C155.879 52.3797 155.324 52.5285 153.337 53.0606L153.015 53.1468C149.986 53.9579 147.784 56.3449 148.457 59.2658ZM209.765 64.7997C209.256 64.1837 208.404 62.7515 208.055 61.2268C207.942 60.7392 203.923 35.3854 203.615 33.137C203.317 30.9604 199.103 23.6299 187.265 26.0785C183.862 26.6536 181.971 28.0628 180.244 29.35C179.89 29.6141 179.542 29.873 179.19 30.1185C178.107 30.791 176.5 30.2674 176.11 30.1288C174.837 29.6668 173.975 29.6308 173.107 29.7438C172.558 29.8105 172.065 29.9491 171.639 30.1237C171.341 30.3444 171.085 30.7191 171.326 31.2787C171.885 31.9717 172.84 33.6965 173.297 35.6882C173.689 37.3725 176.708 56.938 177.658 63.0979L177.659 63.1019L177.66 63.1084L177.66 63.1111C177.83 64.2089 177.933 64.8776 177.943 64.9383C178.03 65.4465 178.302 66.273 179.36 66.1036C179.38 66.1012 179.389 66.0989 179.395 66.0971C179.403 66.0948 179.409 66.0933 179.431 66.0933C182.609 65.6539 185.015 65.6872 186.65 65.7097H186.65C187.326 65.7191 187.87 65.7266 188.281 65.698C188.637 65.6736 188.926 65.6663 189.162 65.6604H189.162C189.919 65.6412 190.134 65.6358 190.299 65.1231C190.401 64.8108 190.22 64.6575 189.923 64.4064C189.473 64.0262 188.757 63.4213 188.358 61.6991L184.647 38.3576C184.293 35.9398 185.278 33.4809 188.112 33.024C190.017 32.716 192.896 34.3074 193.374 37.1102C193.374 37.1102 197.634 64.4455 197.701 64.7843C197.768 65.1231 198.163 65.2155 198.338 65.2258C201.192 65.0564 206.515 65.1898 209.41 65.5902C210.047 65.6775 209.929 65.005 209.765 64.8048V64.7997ZM171.074 75.3643C170.366 78.4495 167.291 79.5993 164.74 79.4197C161.726 79.2092 159.827 76.3396 161.218 73.3366C163.297 68.85 172.727 69.8408 172.378 70.4927C171.654 71.7013 171.549 72.4483 171.403 73.4956L171.403 73.4963L171.403 73.4971C171.33 74.0152 171.248 74.6069 171.074 75.3643ZM158.379 85.4097C156.053 75.548 150.335 79.791 148.65 81.0406C148.58 81.0926 148.517 81.1394 148.462 81.1798C147.184 82.1089 144.73 84.3933 144.73 84.3933C143.534 85.2313 142.992 84.0224 142.631 83.218C142.51 82.9483 142.41 82.724 142.312 82.6376C142.312 82.6376 141.634 81.3132 140.141 81.4364C138.647 81.5648 133.765 82.5606 132.41 83.9415C131.283 85.0867 132.234 85.9873 132.789 86.5138L132.79 86.5144C132.824 86.5464 132.856 86.577 132.886 86.6062C132.903 86.6219 132.918 86.6371 132.933 86.6519C133.423 87.1413 133.464 87.3437 133.538 87.7117L133.554 87.7916C133.642 88.2125 139.104 123.438 139.104 123.438C139.145 123.7 139.396 123.843 139.602 123.777C139.839 123.699 140.669 123.436 141.771 123.086L141.775 123.085L141.775 123.084C144.532 122.209 148.995 120.792 150.187 120.378L150.28 120.346C150.956 120.111 151.321 119.984 150.756 119.331C150.657 119.215 150.539 119.111 150.411 118.998C149.983 118.62 149.452 118.151 149.211 116.882C149.179 116.716 149.117 116.313 149.028 115.732C148.963 115.309 148.883 114.791 148.79 114.203L145.731 94.6652C145.725 94.6221 145.724 94.579 145.723 94.536V94.5358C145.723 94.507 145.723 94.4783 145.721 94.4496C145.638 93.8541 145.572 93.1713 145.602 92.7709L145.605 92.7438C145.722 91.3462 145.873 89.551 148.872 89.3572C149.642 89.3059 150.602 89.6293 151.398 90.5636C154.314 93.9773 158.744 91.7289 159.642 91.1899C159.642 91.1899 159.144 88.6078 158.39 85.4097H158.379ZM109.402 88.856C110.413 88.4813 111.507 88.1271 112.713 87.7985C124.53 84.5953 128.288 88.8304 128.626 90.9967L132.528 116.638C132.867 118.804 130.69 124.646 118.873 127.844C117.292 128.27 115.654 128.604 114.546 128.722L115.798 136.72C116.075 137.71 116.568 138.383 117.333 138.696C117.384 138.717 117.554 138.937 117.051 139.42C114.946 140.662 109.715 143.799 107.544 145.565C106.83 145.965 106.347 146.016 105.803 145.76C105.244 145.493 105.362 144.943 105.68 144.025C106.274 142.295 101.023 111.477 99.9391 105.119L99.9367 105.105C99.87 104.714 99.8193 104.416 99.787 104.225C99.2326 100.945 97.0509 99.2819 96.0858 98.8251C94.9719 98.3015 95.4698 97.2388 95.9421 96.9565C96.2899 96.7486 97.4203 95.8974 99.048 94.6716L99.0481 94.6715L99.0485 94.6712C99.6307 94.2328 100.276 93.7465 100.973 93.2245C104.304 90.7246 108.329 89.2205 109.402 88.856ZM117.964 122.059C120.326 121.453 121.953 118.999 121.578 116.612L118.58 97.4801C118.206 95.0931 115.967 93.6352 113.606 94.241C111.245 94.8467 109.617 97.3005 109.992 99.6875L112.99 118.82C113.365 121.207 115.603 122.665 117.964 122.059ZM94.936 126.19C94.936 126.19 97.4051 140.25 97.6413 141.728V141.718C97.6645 141.864 97.7014 142.026 97.7422 142.206C98.1169 143.857 98.827 146.984 92.4257 152.39C83.1856 160.193 68.5914 161.692 63.4683 158.766C61.4381 157.609 60.888 157.831 60.3572 158.046C60.1109 158.146 59.8688 158.244 59.4848 158.201C58.6789 158.109 57.9294 156.461 59.3205 155.091C61.1001 153.338 60.409 149.912 60.0729 148.246C60.0202 147.985 59.9763 147.767 59.9519 147.606C59.7261 146.102 59.0639 141.934 59.0639 141.934C59.0639 141.929 59.0628 141.924 59.0617 141.919L59.0609 141.916L59.0599 141.91C59.0592 141.907 59.0587 141.902 59.0587 141.898C58.8394 140.021 57.7743 138.832 57.1273 138.11C56.8504 137.8 56.6501 137.577 56.6255 137.421C56.5434 136.903 57.0208 136.846 57.4212 136.857C59.3565 136.913 71.5945 137.478 71.2146 137.498C71.3891 137.539 71.6253 137.658 71.7023 137.966L73.5246 149.546C74.1971 152.406 75.7114 152.94 81.2196 150.814C84.1969 149.665 84.9977 147.816 85.1107 146.359L83.9197 138.802C83.708 137.57 83.5193 136.315 83.4014 135.531C83.3621 135.269 83.3307 135.06 83.3089 134.921C82.7647 131.467 78.5656 130.928 78.5656 130.928L58.8226 128.725C55.1471 128.289 55.1471 125.445 55.1471 125.445L53.7765 116.708C53.1451 114.424 51.7693 113.248 50.604 112.709C49.485 112.191 49.3772 111.323 49.3926 111.221C49.4285 110.954 49.8238 110.03 51.3587 109.973C52.4829 109.824 53.8843 108.731 56.261 106.226C59.6799 102.622 66.189 99.4035 69.7772 98.0894C72.1899 97.2013 78.1652 95.6151 81.6713 95.5483C84.0891 95.5021 86.317 95.1479 88.201 93.88C89.243 93.1767 90.9833 93.7825 90.1773 95.4457C89.3602 97.138 89.7454 99.8549 89.883 100.826L89.895 100.911L89.9053 100.985L91.0808 108.454C91.2759 109.26 91.7019 110.82 92.1588 111.349C93.0982 112.437 93.4268 112.868 92.9288 113.223C92.6261 113.439 91.948 113.389 91.0757 113.325C90.9126 113.313 90.7429 113.301 90.5675 113.289L78.9557 113.11C78.6631 113.043 78.5348 112.838 78.4835 112.668C78.4835 112.668 78.2063 111.159 77.6827 107.72C77.1591 104.285 75.7987 102.766 70.2084 104.696C66.7999 105.877 65.8091 108.674 66.0658 110.522C66.343 112.489 66.9282 116.061 66.9282 116.061C67.1952 117.047 67.6931 118.161 68.6171 118.613C70.4164 119.495 84.7009 120.872 87.0317 121.096L87.032 121.096H87.032L87.1486 121.107C88.6116 121.246 94.0376 122.437 94.9103 126.19H94.936ZM172.193 80.5642C172.255 80.4821 177.234 112.653 177.234 112.653C177.605 113.904 178.384 114.439 178.92 114.807C179.221 115.014 179.446 115.169 179.478 115.369C179.559 115.886 178.899 115.954 177.579 116.09L177.578 116.09L177.574 116.091C177.388 116.11 177.189 116.131 176.978 116.154C176.264 116.232 175.4 116.32 174.489 116.412L174.487 116.412L174.486 116.413L174.485 116.413L174.485 116.413C171.821 116.683 168.751 116.994 167.799 117.242C166.521 117.571 166.341 116.97 166.701 115.887C166.947 115.143 166.901 113.716 166.762 112.771C166.624 111.827 162.05 82.7562 162.05 82.7562C162.206 82.7836 162.377 82.8183 162.563 82.8559L162.565 82.8562L162.566 82.8564C163.562 83.0583 164.977 83.3452 166.819 83.0642C170.099 82.5662 171.911 80.9492 172.193 80.5642ZM216.122 115.645C216.175 115.73 216.216 115.796 216.243 115.842V115.848C216.459 116.217 216.418 116.838 215.817 116.689C212.73 115.932 207.938 115.475 205.843 115.275L205.842 115.275C205.381 115.231 205.05 115.2 204.898 115.18C204.056 115.072 204.072 114.39 204.072 114.39H204.062C204.041 114.261 199.873 86.7104 199.873 86.7104C199.477 84.0667 197.465 80.7814 194.647 81.2588C192.28 81.6592 190.694 84.2721 191.095 86.9158L194.708 110.504C195.126 112.424 195.847 113.115 196.301 113.55C196.6 113.836 196.783 114.011 196.685 114.354C196.514 114.955 196.281 114.952 195.395 114.938C195.192 114.935 194.956 114.931 194.678 114.934C194.398 114.937 194.091 114.939 193.753 114.941L193.752 114.941C191.873 114.954 189.067 114.973 185.078 115.216C184.688 115.242 184.539 114.888 184.508 114.8C184.508 114.8 180.725 89.5441 180.407 87.6755C180.359 87.3923 180.32 87.0943 180.279 86.7837C180.053 85.0451 179.775 82.91 177.501 80.7454C177.055 80.4888 176.752 80.1602 176.695 79.7855C176.562 78.8769 177.85 78.0093 179.575 77.9734C180.361 77.9529 181.639 78.2301 182.563 78.5586C182.563 78.5586 183.369 78.7588 184.57 78.0812C186.634 76.6644 189.56 75.3964 193.646 74.5854C205.442 72.2445 209.472 78.7229 209.831 81.1202C209.831 81.1202 214.118 109.754 214.487 111.772C214.811 113.539 215.75 115.047 216.122 115.645ZM247.167 74.2713V74.2661C247.634 73.9941 247.875 73.7682 247.844 73.3935C247.788 72.7415 247.531 72.5619 246.746 72.3308C238.845 70.0003 227.819 71.1964 223.958 72.0639C217.08 73.6091 215.386 77.0536 215.642 78.686L218.933 99.6969C219.205 101.437 222.095 104.897 230.714 105.724C233.753 106.016 238.214 105.58 239.508 105.38L241.155 116.596C241.504 118.834 239.795 120.528 237.357 120.359C234.923 120.195 231.982 116.894 231.823 113.018C231.797 112.423 231.304 112.376 231.304 112.376C230.462 112.31 224.092 111.098 222.059 110.072L221.948 110.009C220.574 109.229 219.397 108.561 218.897 109.106C218.374 109.682 218.689 109.899 218.884 110.033C218.9 110.045 218.916 110.055 218.93 110.066C218.936 110.07 218.942 110.074 218.947 110.078C218.953 110.083 218.958 110.088 218.964 110.092C218.964 110.092 220.17 111.632 220.581 113.911C220.991 116.191 221.474 117.689 222.08 118.814C223.055 121.098 226.931 126.242 238.188 126.811C244.887 127.15 247.403 125.528 249.779 123.86C250.534 123.331 252.403 122.782 253.547 122.782C254.641 122.782 255.041 122.33 254.887 121.329C254.79 120.687 254.358 120.349 253.758 119.994C253.758 119.994 252.279 119.009 251.884 116.504C251.884 116.504 246.792 82.7054 245.904 76.9406C245.739 75.8678 246.314 74.7743 247.161 74.2815L247.167 74.2713ZM238.091 96.3243C238.44 98.5419 236.746 100.431 234.328 100.529C231.91 100.621 229.646 98.8859 229.302 96.6682L227.839 87.3409L226.879 81.2013C226.53 78.9837 228.224 77.0946 230.642 76.9971C233.06 76.9047 235.324 78.6398 235.668 80.8574L238.091 96.3243ZM250.308 75.652C249.846 76.227 249.667 76.8738 249.769 77.6027H249.774C249.898 78.3265 250.267 78.886 250.878 79.2813C251.473 79.6971 252.166 79.846 252.957 79.7331C253.748 79.5996 254.369 79.2454 254.815 78.6653C255.267 78.1006 255.442 77.459 255.339 76.73C255.216 76.0062 254.851 75.4415 254.245 75.036C253.64 74.6305 252.942 74.4867 252.151 74.5997C251.366 74.7331 250.75 75.0822 250.308 75.652ZM251.227 78.8809C250.755 78.5729 250.467 78.116 250.37 77.5103L250.375 77.5052C250.283 76.8892 250.416 76.3604 250.77 75.9241C251.109 75.4826 251.597 75.2105 252.233 75.1079C252.875 75.0103 253.429 75.1233 253.891 75.4364C254.353 75.7495 254.636 76.2116 254.738 76.8224C254.831 77.4282 254.702 77.9518 254.353 78.3881C254.009 78.8398 253.517 79.1222 252.875 79.2249C252.238 79.3224 251.689 79.2043 251.227 78.8809ZM252.485 75.575L251.258 75.7649V75.7752L251.725 78.768L252.274 78.6807L252.084 77.4641L252.403 77.4128L253.522 78.4805L254.168 78.3778L253.044 77.2947C253.28 77.2382 253.465 77.1304 253.604 76.9713C253.737 76.8122 253.778 76.5863 253.737 76.2937C253.645 75.6931 253.229 75.4518 252.485 75.575ZM252.397 76.9302L252.012 76.9918L252.018 76.9867L251.884 76.1448L252.392 76.0678C252.587 76.0422 252.762 76.037 252.911 76.0678C253.065 76.1038 253.157 76.2064 253.188 76.381C253.209 76.5658 253.142 76.6992 252.988 76.7762C252.829 76.8481 252.634 76.8994 252.397 76.9302ZM193.533 144.399C191.967 144.635 190.848 143.921 190.679 142.294L190.669 142.289L187.491 142.771C187.886 145.395 189.652 147.792 193.99 147.135C198.153 146.508 199.447 143.824 198.841 139.799C198.302 136.237 196.68 134.117 192.968 134.676C191.695 134.866 190.792 135.42 189.976 136.211L189.431 132.597L196.731 131.493L196.315 128.747L186.269 130.266L187.645 139.373L190.273 138.978C190.756 138.069 191.541 137.407 192.624 137.243C194.431 136.971 195.335 138.064 195.658 140.21C196.028 142.643 195.607 144.086 193.533 144.399ZM178.277 131.483L181.577 130.985L183.143 141.344L185.576 140.975L185.946 143.434L183.513 143.803L184.206 148.382L181.172 148.839L180.479 144.26L172.845 145.415L172.424 142.622L178.282 131.488L178.277 131.483ZM180.109 141.801L179.082 135.01H179.036L175.125 142.556L180.109 141.801ZM159.781 147.016C160.299 150.461 163.092 151.811 166.393 151.313H166.388C169.688 150.81 171.952 148.695 171.434 145.25C171.141 143.3 170.238 141.883 168.272 141.441C169.539 140.538 170.027 138.864 169.796 137.345C169.308 134.116 166.701 132.981 163.687 133.438C160.674 133.895 158.518 135.748 159.006 138.977C159.237 140.497 160.197 141.949 161.675 142.442C159.93 143.443 159.488 145.065 159.781 147.016ZM162.23 138.762C162.045 137.53 162.81 136.38 164.108 136.185L164.103 136.19C165.407 135.995 166.475 136.867 166.66 138.094C166.844 139.321 166.003 140.435 164.776 140.62C163.549 140.805 162.414 139.988 162.23 138.762ZM162.943 146.436C162.702 144.819 163.58 143.608 165.191 143.361C166.809 143.12 168.005 144.023 168.246 145.635C168.472 147.129 167.928 148.274 165.977 148.566C164.026 148.859 163.169 147.93 162.943 146.436ZM152.81 139.521L150.135 139.927L149.848 138.022C152.097 137.212 152.551 136.372 153.11 135.338L153.11 135.338C153.167 135.232 153.226 135.124 153.287 135.014L155.192 134.727L157.856 152.36L154.822 152.817L152.81 139.521ZM145.033 141.944L145.033 141.945L137.913 143.012L138.154 144.613L140.762 144.223L142.019 152.606L143.924 152.319L142.666 143.936L145.274 143.546L145.033 141.945L145.038 141.944H145.033ZM133.688 145.106C134.355 145.004 134.833 145.348 135.295 146.241H135.3L136.948 145.481C136.403 144.11 135.207 143.258 133.498 143.515C131.511 143.813 130.644 145.05 130.906 146.775C131.137 148.314 132.533 148.822 133.791 149.28C134.825 149.656 135.766 149.999 135.895 150.851C136.008 151.605 135.562 152.124 134.894 152.226C134.324 152.308 133.565 151.985 133.159 150.809L131.332 151.497C132.148 153.392 133.483 154.059 135.038 153.823C137.05 153.52 138.062 152.206 137.8 150.481C137.518 148.63 135.908 148.057 134.589 147.588C133.672 147.261 132.894 146.985 132.8 146.364C132.697 145.681 133.005 145.209 133.688 145.106ZM123.693 145.137L125.208 155.168L125.213 155.163L130.603 154.347L130.346 152.653L126.876 153.176L126.476 150.538L129.017 150.153L128.76 148.459L126.219 148.844L125.87 146.539L129.201 146.036L128.945 144.342L123.693 145.137ZM145.443 150.096L145.741 152.067L147.712 151.77L147.415 149.798L145.443 150.096ZM144.083 177.119C166.372 177.119 188.41 171.308 207.439 160.246C220.689 152.546 231.643 142.669 239.703 131.468C237.028 131.365 234.62 131.078 232.685 130.77C225.35 140.128 215.781 148.408 204.405 155.025C185.792 165.846 164.586 171.067 143.95 171.067C125.238 171.067 107.01 166.755 91.5993 158.449C90.1157 159.558 88.3858 160.661 85.9166 162.222C98.3702 169.476 112.928 174.28 128.775 176.195C133.868 176.811 138.986 177.114 144.088 177.114L144.083 177.119ZM249.985 86.5714L257.033 85.3907L256.812 84.0868C256.72 83.5273 256.489 83.1269 256.124 82.8856C255.76 82.6392 255.252 82.5725 254.589 82.6854L251.294 83.2398C250.709 83.3374 250.288 83.5478 250.016 83.8815C249.749 84.21 249.656 84.6464 249.749 85.1854L249.985 86.5714ZM255.924 84.6156L250.775 85.478L250.703 85.0468C250.652 84.7747 250.698 84.5694 250.832 84.441C250.965 84.3127 251.171 84.2254 251.448 84.1792L254.846 83.6094C255.154 83.5581 255.385 83.5735 255.544 83.6608C255.703 83.748 255.806 83.9226 255.852 84.1844L255.924 84.6156ZM257.808 89.9532L250.76 91.1339L250.606 90.2355L254.615 88.1103V88.0898L250.365 88.8033L250.206 87.869L257.254 86.6884L257.403 87.5662L253.409 89.7068V89.7273L257.649 89.0138L257.808 89.9481V89.9532ZM251.284 94.2546L258.583 94.5318L258.578 94.5215L258.419 93.5873L256.858 93.5667L256.643 92.2937L258.111 91.7649L257.952 90.8306L251.15 93.4743L251.284 94.2546ZM253.25 93.5205L255.729 92.6325L255.724 92.6376L255.883 93.5719L253.25 93.5411V93.5205ZM259.256 98.4754L252.208 99.6561L251.951 98.152C251.766 97.0535 252.362 96.3861 253.737 96.1551C254.153 96.0832 254.518 96.0832 254.826 96.1551C255.139 96.227 255.406 96.3964 255.637 96.6633L258.681 95.113L258.85 96.1038L255.986 97.4795L256.078 98.0391L259.086 97.536L259.245 98.4703L259.256 98.4754ZM252.998 98.5627L255.195 98.1931L255.103 97.6592C255.077 97.4949 255.026 97.3666 254.959 97.2793C254.892 97.1921 254.81 97.1253 254.708 97.0843C254.605 97.0535 254.487 97.0381 254.348 97.0381C254.21 97.0381 254.05 97.0586 253.871 97.0894C253.691 97.1202 253.537 97.1561 253.404 97.1972C253.27 97.2383 253.162 97.2947 253.07 97.3666C252.906 97.5155 252.849 97.7516 252.906 98.075L252.988 98.5627H252.998ZM260 102.843L252.952 104.024L252.721 102.658C252.67 102.361 252.675 102.094 252.741 101.868C252.803 101.642 252.906 101.447 253.049 101.283C253.193 101.118 253.368 100.99 253.568 100.898C253.773 100.805 253.989 100.738 254.22 100.697L254.476 100.656C254.666 100.626 254.831 100.61 254.969 100.615C255.108 100.615 255.226 100.641 255.339 100.682C255.539 100.754 255.724 100.887 255.893 101.077C255.97 100.836 256.104 100.651 256.304 100.507C256.504 100.369 256.792 100.266 257.166 100.199L257.562 100.133C258.183 100.03 258.681 100.087 259.061 100.312C259.44 100.533 259.677 100.954 259.784 101.565L260 102.838V102.843ZM253.737 102.93L255.678 102.607L255.606 102.186C255.554 101.873 255.431 101.678 255.246 101.601C255.062 101.524 254.805 101.508 254.482 101.565C254.163 101.616 253.937 101.719 253.799 101.863C253.66 102.006 253.619 102.237 253.671 102.551L253.737 102.936V102.93ZM258.83 102.073L256.576 102.452L256.504 102.042C256.473 101.868 256.473 101.729 256.499 101.616C256.525 101.503 256.576 101.411 256.658 101.334C256.74 101.267 256.848 101.211 256.976 101.17C257.105 101.129 257.259 101.093 257.438 101.062C257.608 101.031 257.767 101.011 257.916 101C258.065 100.985 258.198 101 258.311 101.036C258.424 101.072 258.522 101.139 258.599 101.236C258.676 101.334 258.732 101.478 258.763 101.668L258.83 102.073Z" fill="#0058AD"/>
</svg>
