<svg width="300" height="189" viewBox="0 0 300 189" fill="none" xmlns="http://www.w3.org/2000/svg">
<path d="M37.9839 70.714C37.9839 70.714 30.2688 85.3014 30.2688 97.9262C30.2688 97.9262 29.5677 127.662 60.2868 127.662H64.4939C64.4939 127.662 70.6652 129.624 176.983 97.9262H150.055L148.651 64.5415L136.028 97.9262H116.672L147.25 16.8517H165.765L157.349 40.1364L177.265 16.8517H235.616L230.565 30.3182H210.648L204.478 47.4298H222.991L217.101 62.5784H198.866L191.573 82.4952H213.456L211.772 88.3858C211.772 88.3858 291.159 67.9083 299.575 65.6637C299.575 65.6637 73.3171 172.887 36.2872 172.887C36.2872 172.887 0.533878 173.106 0.533878 143.93C0.533878 143.93 -3.53424 116.721 37.9839 70.714ZM168.849 92.3153L195.967 19.0026L167.166 49.6739L168.849 92.3153ZM124.527 16.8517L94.4163 97.9262H113.118L143.417 16.8517H124.527ZM40.7438 97.9262H59.4446L72.9102 62.5784L71.4132 97.9262H91.2364L121.534 16.8517H103.02L89.1796 52.667L91.4251 16.8517H71.4132L40.7438 97.9262ZM54.804 116.613C54.804 117.328 54.6247 117.995 54.267 118.615C53.9093 119.234 53.4206 119.723 52.8017 120.08C52.1833 120.436 51.5148 120.614 50.7999 120.614C50.0877 120.614 49.422 120.436 48.8028 120.08C48.1839 119.723 47.6951 119.234 47.3374 118.615C46.9802 117.995 46.8004 117.328 46.8004 116.613C46.8004 115.897 46.9802 115.23 47.3374 114.611C47.6951 113.99 48.1839 113.502 48.8028 113.146C49.422 112.788 50.0877 112.61 50.7999 112.61C51.5148 112.61 52.1833 112.788 52.8017 113.146C53.4206 113.502 53.9093 113.99 54.267 114.611C54.6247 115.23 54.804 115.897 54.804 116.613ZM54.0252 116.613C54.0252 115.72 53.7083 114.959 53.078 114.328C52.4488 113.695 51.6889 113.381 50.7975 113.381C49.908 113.381 49.1481 113.695 48.5169 114.328C47.8868 114.959 47.5717 115.72 47.5717 116.613C47.5717 117.502 47.8868 118.265 48.5169 118.897C49.1481 119.527 49.908 119.844 50.7975 119.844C51.6889 119.844 52.4488 119.527 53.078 118.897C53.7083 118.265 54.0252 117.502 54.0252 116.613ZM48.9835 114.471H50.8959C51.4376 114.471 51.8294 114.578 52.0731 114.796C52.3149 115.018 52.437 115.31 52.437 115.678C52.437 115.966 52.3451 116.215 52.1596 116.426C51.9728 116.636 51.6822 116.787 51.2834 116.882C51.448 116.946 51.5701 117.012 51.6482 117.082C51.7551 117.181 51.8696 117.326 51.9884 117.517C51.9969 117.532 52.2273 117.943 52.683 118.755H51.4211C51.0104 117.942 50.7346 117.453 50.5955 117.296C50.4559 117.137 50.3149 117.056 50.1744 117.056C50.1445 117.056 50.0996 117.06 50.0437 117.073V118.755H48.9835V114.471ZM50.0437 116.292H50.5065C50.8169 116.292 51.0341 116.243 51.1604 116.141C51.2858 116.041 51.3515 115.911 51.3515 115.753C51.3515 115.593 51.2901 115.464 51.1689 115.366C51.0459 115.264 50.8415 115.214 50.5501 115.214H50.0437V116.292ZM247.585 20.8275C247.585 21.5434 247.407 22.211 247.049 22.8298C246.692 23.4492 246.203 23.9365 245.586 24.2947C244.967 24.6509 244.299 24.8288 243.582 24.8288C242.87 24.8288 242.204 24.6509 241.585 24.2947C240.967 23.9365 240.478 23.4492 240.121 22.8298C239.761 22.211 239.581 21.5434 239.581 20.8275C239.581 20.1126 239.761 19.4459 240.121 18.8252C240.478 18.2053 240.967 17.7171 241.585 17.3589C242.204 17.0026 242.87 16.8247 243.582 16.8247C244.299 16.8247 244.967 17.0026 245.586 17.3589C246.203 17.7171 246.692 18.2053 247.049 18.8252C247.407 19.4459 247.585 20.1126 247.585 20.8275ZM246.807 20.8275C246.807 19.9347 246.491 19.1729 245.863 18.5427C245.232 17.912 244.471 17.5956 243.58 17.5956C242.691 17.5956 241.93 17.912 241.3 18.5427C240.669 19.1729 240.355 19.9347 240.355 20.8275C240.355 21.7175 240.669 22.4807 241.3 23.1108C241.93 23.7406 242.691 24.0581 243.58 24.0581C244.471 24.0581 245.232 23.7406 245.863 23.1108C246.491 22.4807 246.807 21.7175 246.807 20.8275ZM241.765 18.6837H243.679C244.22 18.6837 244.612 18.794 244.856 19.0111C245.098 19.2326 245.221 19.5259 245.221 19.893C245.221 20.1812 245.126 20.4305 244.941 20.6411C244.757 20.8512 244.466 21.0039 244.068 21.0981C244.233 21.1615 244.35 21.2278 244.43 21.2974C244.538 21.3948 244.653 21.541 244.771 21.7327C244.778 21.7459 245.011 22.1589 245.465 22.9698H244.203C243.792 22.1556 243.518 21.6688 243.378 21.5093C243.238 21.3517 243.098 21.2723 242.957 21.2723C242.925 21.2723 242.884 21.277 242.827 21.2864V22.9698H241.765V18.6837ZM242.827 20.5071H243.289C243.599 20.5071 243.817 20.4571 243.943 20.3563C244.07 20.256 244.133 20.1263 244.133 19.9678C244.133 19.8083 244.072 19.6792 243.953 19.5794C243.83 19.479 243.626 19.4293 243.334 19.4293H242.827V20.5071Z" fill="#0058AD"/>
</svg>
