<svg width="300" height="181" viewBox="0 0 300 181" fill="none" xmlns="http://www.w3.org/2000/svg">
<path fill-rule="evenodd" clip-rule="evenodd" d="M205.52 10.208C205.803 15.2158 202.458 19.1973 198.035 19.0557V19.0203C193.646 18.9142 189.806 14.6849 189.541 9.67706C189.275 4.66923 192.655 0.670044 197.044 0.829304C201.432 0.988563 205.237 5.20013 205.52 10.208ZM88.5878 30.5045C101.736 26.753 106.85 36.981 107.434 46.7489H107.363C107.787 53.5794 107.681 60.9584 107.522 67.0987L86.9421 74.9556C87.0306 76.2473 87.0306 85.8383 87.0306 87.0593C87.0306 90.7046 87.2076 94.1198 91.1537 93.4297C94.6397 92.828 94.9582 87.6255 94.9582 84.0864V78.0523L107.734 73.0621C107.752 76.9905 107.681 78.2469 107.469 81.2551C106.655 93.7836 102.249 101.127 92.4985 104.065C79.7578 107.958 73.9536 97.9774 73.0335 84.5996C72.6619 78.477 72.6618 66.3555 72.6618 62.9934C72.5734 46.2003 77.1211 33.7604 88.5878 30.5045ZM87.0129 65.2938L94.0911 62.4802H94.1619V44.9794C94.1619 42.0596 93.5779 40.6794 91.8084 40.6794C88.6409 40.6794 87.0129 42.9621 87.0129 46.395V65.2938ZM233.744 81.3259L233.939 88.7049C233.939 88.8416 233.948 89.0409 233.96 89.2863C234.061 91.3598 234.323 96.7229 230.24 95.3938C226.211 94.0957 226.069 88.9747 225.972 85.5094C225.968 85.3375 225.963 85.1697 225.958 85.0066C225.958 85.0066 225.604 71.3279 225.604 71.1864L245.582 80.0341C245.582 74.1238 244.945 64.5152 244.45 57.5785C243.459 44.3246 239.513 35.2468 229.621 32.3093C218.26 28.9649 211.766 36.9632 211.005 50.9427C210.775 55.3135 211.005 72.0534 211.554 77.8753C213.111 96.2786 219.428 103.658 229.161 106.577C239.973 109.816 245.317 105.303 245.565 92.9872V86.8115L233.744 81.3259ZM225.233 50.4119C225.038 43.776 225.71 41.1571 228.258 42.1304C231.796 43.4694 231.905 48.2369 231.991 51.9748C231.997 52.238 232.003 52.4962 232.01 52.7477C232.01 53.2597 232.144 58.1555 232.234 61.4124L232.234 61.426L232.235 61.4563C232.275 62.9057 232.305 64.0222 232.311 64.2674L225.427 61.1707C225.427 60.3443 225.29 53.3346 225.245 51.0511L225.233 50.4119ZM126.368 23.975L127.907 33.2121L127.89 33.2474C132.42 24.4528 134.49 22.3293 144.559 22.1524V54.0043L138.454 56.8002C135.959 39.0339 133.517 36.7512 129.447 39.5647V78.8842C129.447 83.5204 130.367 85.3607 138.118 85.5731V92.6513C128.708 93.4308 119.358 94.8079 110.123 96.7744V89.9616L110.331 89.8633C114.685 87.8073 115.68 87.3375 115.68 80.2644V41.8475C115.68 35.4063 113.999 34.3622 109.292 35.4063V27.9565C114.874 26.1984 120.583 24.8674 126.368 23.975ZM204.405 79.5386V27.4077C198.541 25.9269 192.581 24.8567 186.568 24.2048V32.4863C190.248 32.734 190.355 33.0171 190.443 39.1398V78.0699L190.443 78.4234C190.445 84.313 190.446 86.0074 184.32 86.5106V93.5003C192.875 94.537 201.369 96.0255 209.767 97.9596V91.0583C205.113 88.3509 204.458 87.944 204.458 79.5917L204.405 79.5386ZM64.8581 52.2523V95.3231L64.8758 95.3408C70.8215 97.5174 73.175 104.719 71.0692 112.045C70.4322 114.364 69.4412 114.045 68.9989 112.594C67.7779 108.719 64.8935 108.17 64.1149 108.86C64.0858 112.718 62.5705 116.415 59.8843 119.184C57.1981 121.952 53.5479 123.579 49.6931 123.724C48.5555 123.834 47.4076 123.705 46.3229 123.345C45.2381 122.986 44.2404 122.404 43.3935 121.636V154.55C45.2338 155.505 48.2066 155.682 49.3922 151.577C49.8346 149.967 50.4363 149.719 51.4626 151.736C55.3025 159.31 50.7194 169.308 42.9156 169.308C42.985 170.811 42.749 172.312 42.2219 173.721C41.6948 175.13 40.8875 176.418 39.8489 177.506C38.8102 178.594 37.5617 179.461 36.1788 180.053C34.7959 180.645 33.3073 180.951 31.8029 180.952C29.0193 180.967 26.3059 180.079 24.0699 178.421C22.8136 177.519 22.2473 176.882 24.2292 176.351C28.7062 175.148 29.8564 171.821 29.7148 166.636C21.5395 167.769 17.2925 159.664 22.3358 150.993C23.6452 148.657 24.4593 148.764 24.6539 150.427C25.0786 154.09 27.4675 155.081 29.5025 152.073V58.9588C27.3714 60.1135 25.372 61.496 23.5391 63.0819L20 58.428C22.6322 52.391 25.8756 46.6395 29.6794 41.2633C29.3255 47.5806 33.6255 48.9609 35.6251 47.3152C37.6247 45.6695 38.651 41.1571 32.9708 38.2197C43.9066 23.1608 53.3206 22.9485 60.8589 28.4695C59.1874 30.108 58.206 32.324 58.1161 34.6629C58.0542 35.1125 58.0865 35.57 58.2108 36.0064C58.3351 36.4428 58.5488 36.8486 58.8384 37.1981C59.1279 37.5475 59.4869 37.8329 59.8927 38.0362C60.2984 38.2395 60.7419 38.3562 61.1951 38.3789C62.7877 38.3789 65.3536 36.6094 64.5573 31.3007C66.7275 33.1847 68.4273 35.5499 69.5211 38.2075C70.6149 40.8651 71.0723 43.7416 70.8569 46.6074C66.7515 45.8111 64.8581 47.0852 64.8581 52.2523ZM46.1893 110.081C50.6486 110.081 51.091 103.799 51.091 101.41L51.1087 50.4827C50.8455 50.0174 50.4575 49.635 49.9885 49.3786C49.5195 49.1222 48.9881 49.002 48.4544 49.0317C46.1539 49.0317 43.4111 51.1551 43.4111 55.6851V109.32C44.2203 109.89 45.2029 110.159 46.1893 110.081ZM164.148 21.8688L165.754 31.2439C171.92 21.8867 174.453 22.0115 182.692 23.4438V53.3314L176.464 56.552C173.986 41.3693 172.146 34.7512 167.12 37.5825V75.9286C167.191 83.6261 167.864 83.8031 175.526 85.5727V92.6509C165.914 91.842 156.257 91.7296 146.629 92.3147V85.378C153.017 83.8208 153.371 83.2899 153.371 75.2916V37.0516C153.336 31.3005 152.451 30.2388 148.222 30.805V22.8421C153.51 22.2446 158.826 21.9198 164.148 21.8688ZM274.176 85.3978L274.143 85.414H274.178C274.178 85.4086 274.177 85.4032 274.176 85.3978ZM280 82.565L274.176 85.3978C274.069 84.5754 273.966 83.7784 273.866 83.0069C272.125 69.5447 271.383 63.8013 266.18 65.2234V102.88C266.18 108.471 266.622 109.055 271.188 113.32V121.371C262.11 116.877 255.916 114.134 247.069 110.489V102.738C251.404 104.136 252.767 104.561 252.519 96.2437C252.43 92.4922 252.519 57.9683 252.519 57.9683C252.36 52.8366 251.386 51.3679 247.21 49.5983V40.9452C252.89 42.7932 258.441 45.0159 263.826 47.5987L265.171 58.216C271.064 51.7041 273.205 51.3148 279.699 55.0485L280 82.565Z" fill="#0058AD"/>
</svg>
