<svg width="300" height="189" viewBox="0 0 300 189" fill="none" xmlns="http://www.w3.org/2000/svg">
<path fill-rule="evenodd" clip-rule="evenodd" d="M246.041 66.1491C243.816 64.2987 234.253 56.3477 222.863 59.0883C208.098 62.6304 199.039 81.1056 195.809 91.1895C181.092 137.135 206.532 131.69 208.784 131.208C208.831 131.198 208.868 131.19 208.894 131.185L218.462 100.619C218.869 99.1314 219.236 95.4682 214.351 93.4073H247.73C243.595 94.9497 241.222 97.343 240.195 101.043L230.577 131.621C230.528 131.644 230.462 131.677 230.378 131.718C227.56 133.102 205.084 144.138 184.639 134.05C165.017 124.341 168.814 88.0941 184.29 70.4407C208.674 42.5716 242.859 53.0249 249.446 55.0391C249.66 55.1045 249.845 55.1611 250 55.2071L246.459 66.4877C246.381 66.432 246.241 66.3151 246.041 66.1491ZM134.55 82.2545C144.041 58.7972 126.28 52.4376 114.673 52.4376L76.3201 52.4629C79.5099 54.6501 78.978 57.5527 78.3651 59.3184L56.018 130.786C55.1378 133.615 51.7765 136.576 50.0001 137.048H81.0443C79.3437 136.735 76.9038 134.304 77.7588 130.979L85.8881 105.141C85.8881 105.141 123.245 110.195 134.55 82.2545ZM104.371 58.9913C108.433 58.9913 119.681 59.5351 112.439 80.8384C104.815 103.159 87.9437 98.5877 87.9437 98.5877L100.361 58.9913H104.371ZM159.398 137.049H180.252C173.569 134.886 163.675 128.598 159.756 124.088C162.951 120.582 166.882 116.254 167.607 107.336H156.749C156.749 107.336 158.853 108.539 158.853 111.079C158.853 113.448 157.886 116.677 156.074 118.974C152.889 114.27 149.494 108.902 148.337 101.031C149.247 100.573 150.237 100.108 151.279 99.6182L151.28 99.6181C155.08 97.8337 159.561 95.729 163.294 92.4827C167.799 88.5178 168.814 84.8188 168.91 82.3762V82.0611C168.91 79.5468 167.924 77.1588 166.082 75.3518C162.951 72.2192 157.982 70.9627 152.807 71.928C148.632 72.7152 145.081 74.9396 143.292 76.5963C136.959 82.4839 136.157 92.2527 136.157 96.6671C136.157 97.7069 136.185 98.5525 136.24 99.0365C135.88 99.1575 135.249 99.4234 135.249 99.4234C134.802 99.5868 134.281 99.7654 133.703 99.9641C128.327 101.81 117.906 105.388 113.911 114.524C113.368 115.806 112.58 118.551 112.58 121.79C112.58 124.584 113.173 127.667 114.938 130.509C118.047 135.333 123.333 138.392 131.732 138.246C140.895 138.089 149.914 131.85 151.513 130.702C151.63 130.808 151.759 130.928 151.9 131.058L151.902 131.06C153.707 132.724 157.377 136.107 159.398 137.049ZM159.371 80.5613C158.297 87.369 149.483 94.2485 147.34 95.1806C146.955 91.3472 147.11 85.3134 150.339 80.3685C152.436 77.091 155.248 75.6656 157.523 76.4514C159.322 77.079 159.54 78.761 159.371 80.5613ZM147.11 126.072C145.878 126.832 141.042 129.287 136.487 129.723C132.276 130.11 125.252 128.477 125.289 120.05C125.289 112.807 133.144 107.561 137.367 105.711C139.117 112.724 143.001 120.582 147.11 126.072Z" fill="#0058AD"/>
</svg>
