<svg width="300" height="189" viewBox="0 0 300 189" fill="none" xmlns="http://www.w3.org/2000/svg">
<path fill-rule="evenodd" clip-rule="evenodd" d="M32.0724 107.16C36.5563 114.512 44.7788 119.443 53.9292 119.443C67.4497 119.443 74.8925 107.774 74.8925 107.774L75.8503 110.882C69.5914 119.024 58.4086 123.928 45.8968 123.928C31.4917 123.928 19.0696 117.056 13.3525 107.147C11.2019 103.415 10.0001 99.2459 10.0001 94.8548C10.0001 78.7989 26.0709 65.7827 45.8968 65.7827C59.9052 65.7827 71.1838 71.7842 77.1045 80.4796L53.5999 94.5539L67.0142 73.9558C63.1769 71.5417 58.4685 69.2818 53.5999 69.2818C39.8384 69.2818 28.5044 80.7655 28.5044 94.527C28.5044 99.1381 29.8125 103.471 32.0724 107.16ZM95.0101 107.153C94.9397 107.615 94.9038 108.09 94.9038 108.572C94.9038 113.795 99.1393 118.031 104.364 118.031C109.587 118.031 113.823 113.795 113.823 108.572C113.823 108.09 113.787 107.615 113.716 107.147C113.033 102.602 109.105 99.1131 104.364 99.1131C99.6212 99.1131 95.694 102.602 95.0101 107.153ZM130.109 107.147L134.81 122.983H118.32L115.077 112.14C112.905 118.388 105.578 122.983 96.8734 122.983C86.4568 122.983 78.0144 116.405 78.0144 108.289C78.0144 107.91 78.0338 107.533 78.0697 107.147C78.8106 99.5726 86.9462 93.5965 96.8734 93.5965C102.507 93.5965 107.564 95.5212 111.02 98.5743L106.528 83.5556H87.6003C87.6003 83.5556 90.7492 81.6669 104.714 76.5858C118.679 71.5047 123.105 83.5556 123.105 83.5556L130.109 107.147ZM182.835 122.983V83.6167C182.707 79.04 178.958 75.3687 174.351 75.3687C170.752 75.3687 165.836 78.127 160.636 81.0444C159.395 81.7409 158.137 82.4465 156.878 83.1258C156.466 78.781 153.181 75.3687 148.741 75.3687C144.055 75.3687 130.543 83.5553 130.543 83.5553H140.256V122.983H156.909V86.5082C157.583 84.7795 159.263 83.5553 161.23 83.5553C163.791 83.5553 165.867 85.6311 165.867 88.1904V122.983H182.835ZM208.975 107.148L211.336 114.954C211.382 118.299 214.131 120.975 217.505 120.975C220.954 120.975 223.75 118.179 223.75 114.729C223.75 114.487 223.737 114.246 223.71 114.01L221.701 107.148L214.652 83.0548C214.305 79.9328 211.657 77.5053 208.444 77.5053C205.262 77.5053 202.229 80.4791 201.841 83.5561L208.975 107.148ZM235.979 107.152C232.766 116.895 223.587 123.929 212.766 123.929C201.944 123.929 192.767 116.895 189.552 107.148C188.757 104.742 188.328 102.167 188.328 99.4908C188.328 85.9956 199.27 75.0553 212.766 75.0553C226.263 75.0553 237.205 85.9956 237.205 99.4908C237.205 102.167 236.774 104.742 235.979 107.152ZM264.075 122.983V86.5082C264.749 84.7795 266.428 83.5553 268.395 83.5553C270.957 83.5553 273.031 85.6311 273.031 88.1904V122.983H290V83.6167C289.873 79.04 286.124 75.3687 281.516 75.3687C277.916 75.3687 273 78.127 267.801 81.0444C266.56 81.7409 265.302 82.4465 264.042 83.1258C263.632 78.781 260.346 75.3687 255.905 75.3687C251.219 75.3687 238.107 83.5553 238.107 83.5553H247.421V122.983H264.075Z" fill="#0058AD"/>
</svg>
