<?xml version="1.0" encoding="UTF-8"?><svg id="Layer_2" xmlns="http://www.w3.org/2000/svg" viewBox="0 0 428.57 345.05"><g id="Layer_1-2"><path d="M202.76,345.05c43.42,0,86.35-11.32,123.42-32.87,25.81-15,47.15-34.24,62.85-56.06-5.21-.2-9.9-.76-13.67-1.36-14.29,18.23-32.93,34.36-55.09,47.25-36.26,21.08-77.57,31.25-117.77,31.25-36.45,0-71.96-8.4-101.98-24.58-2.89,2.16-6.26,4.31-11.07,7.35,24.26,14.13,52.62,23.49,83.49,27.22,9.92,1.2,19.89,1.79,29.83,1.79Z" style="fill:#00563f; stroke-width:0px;"/><path d="M165.99,302.29l-2.95-19.54,10.23-1.55.5,3.3-6.49.98.68,4.49,4.95-.75.5,3.3-4.95.75.78,5.14,6.76-1.02.5,3.3-10.5,1.59Z" style="fill:#00563f; stroke-width:0px;"/><path d="M185.64,284.9c-.9-1.74-1.83-2.41-3.13-2.21-1.33.2-1.93,1.12-1.73,2.45.45,2.95,8.81,1.91,9.74,8.02.51,3.36-1.46,5.92-5.38,6.51-3.03.46-5.63-.84-7.22-4.53l3.56-1.34c.79,2.29,2.27,2.92,3.38,2.76,1.3-.2,2.17-1.21,1.95-2.68-.56-3.68-8.9-2.48-9.72-7.94-.51-3.36,1.18-5.77,5.05-6.35,3.33-.5,5.66,1.16,6.72,3.83l-3.21,1.48Z" style="fill:#00563f; stroke-width:0px;"/><path d="M204.61,276.53l.47,3.12-5.08.76,2.45,16.33-3.71.56-2.45-16.33-5.08.76-.47-3.12,13.88-2.08Z" style="fill:#00563f; stroke-width:0px;"/><path d="M205.99,296.25l-.58-3.84,3.84-.58.58,3.84-3.84.58Z" style="fill:#00563f; stroke-width:0px;"/><path d="M219.76,271.81l-5.21.79-.56-3.71c4.83-1.74,5.41-3.55,6.7-5.86l3.71-.56,5.19,34.35-5.91.89-3.92-25.9Z" style="fill:#00563f; stroke-width:0px;"/><path d="M246.22,294.78c-6.43.97-11.87-1.66-12.88-8.37-.57-3.8.29-6.96,3.69-8.91-2.88-.96-4.75-3.79-5.2-6.75-.95-6.29,3.25-9.9,9.12-10.79s10.95,1.32,11.9,7.61c.45,2.96-.5,6.22-2.97,7.98,3.83.86,5.59,3.62,6.16,7.42,1.01,6.71-3.4,10.83-9.83,11.81ZM241.77,265.31c-2.53.38-4.02,2.62-3.66,5.02.36,2.39,2.57,3.98,4.96,3.62,2.39-.36,4.03-2.53,3.67-4.92-.36-2.39-2.44-4.09-4.98-3.71ZM243.88,279.29c-3.14.48-4.85,2.84-4.38,5.99.44,2.91,2.11,4.72,5.91,4.15s4.86-2.8,4.42-5.71c-.47-3.14-2.8-4.9-5.95-4.43Z" style="fill:#00563f; stroke-width:0px;"/><path d="M269.37,256.15l6.43-.97,3.05,20.18,4.74-.72.72,4.79-4.74.72,1.35,8.92-5.91.89-1.35-8.92-14.87,2.25-.82-5.44,11.41-21.69ZM272.94,276.25l-2-13.23h-.09s-7.62,14.7-7.62,14.7l9.71-1.47Z" style="fill:#00563f; stroke-width:0px;"/><path d="M293.53,277.21c.33,3.17,2.51,4.56,5.56,4.1,4.04-.61,4.86-3.42,4.14-8.16-.63-4.18-2.39-6.31-5.91-5.78-2.11.32-3.64,1.61-4.58,3.38l-5.12.77-2.68-17.74,19.57-2.96.81,5.35-14.22,2.15,1.06,7.04c1.59-1.54,3.35-2.62,5.83-2.99,7.23-1.09,10.39,3.04,11.44,9.98,1.18,7.84-1.34,13.07-9.45,14.29-8.45,1.28-11.89-3.39-12.66-8.5l6.19-.94Z" style="fill:#00563f; stroke-width:0px;"/><path d="M408.64,151.19c-.2-1.42.15-2.68,1.05-3.8.86-1.11,2.06-1.79,3.59-2.05,1.54-.22,2.9.06,4.08.85,1.18.79,1.89,1.89,2.13,3.3.2,1.42-.14,2.67-1.02,3.77-.87,1.13-2.08,1.82-3.62,2.08-1.54.22-2.89-.07-4.05-.88-1.19-.77-1.91-1.86-2.15-3.27ZM409.81,151.01c.19,1.18.75,2.07,1.67,2.67.9.63,1.97.86,3.21.67,1.25-.2,2.21-.75,2.88-1.63.68-.85.93-1.87.75-3.05-.2-1.19-.75-2.09-1.65-2.7-.9-.61-1.98-.83-3.23-.64-1.24.2-2.19.73-2.85,1.59-.69.85-.95,1.88-.77,3.08ZM411.54,147.61l2.39-.37c1.45-.24,2.26.23,2.44,1.4.08.57,0,1.01-.26,1.32-.27.31-.63.52-1.09.63l2.19,2.11-1.26.2-2.18-2.08-.62.1.37,2.37-1.07.17-.91-5.83ZM413.01,150l.75-.12c.46-.06.84-.16,1.15-.3.3-.15.43-.41.39-.77-.06-.34-.24-.54-.54-.61-.29-.06-.63-.05-1.01,0l-.99.15.26,1.64Z" style="fill:#00563f; stroke-width:0px;"/><path d="M428.57,200.36l-13.73,2.3-.45-2.66c-.1-.58-.09-1.1.04-1.54.12-.44.32-.82.6-1.14.28-.32.62-.57,1.01-.75.4-.18.82-.31,1.27-.39l.5-.08c.37-.06.69-.09.96-.08.27,0,.5.05.72.13.39.14.75.4,1.08.77.15-.47.41-.83.8-1.11.39-.27.95-.47,1.68-.6l.77-.13c1.21-.2,2.18-.09,2.92.35.74.43,1.2,1.25,1.41,2.44l.42,2.48ZM416.37,200.53l3.78-.63-.14-.82c-.1-.61-.34-.99-.7-1.14-.36-.15-.86-.18-1.49-.07-.62.1-1.06.3-1.33.58-.27.28-.35.73-.25,1.34l.13.75ZM421.89,199.6l4.4-.74-.13-.79c-.06-.37-.17-.65-.32-.84-.15-.19-.34-.32-.56-.39-.22-.07-.48-.1-.77-.07-.29.02-.6.06-.93.12-.35.06-.65.13-.9.21-.25.08-.46.19-.62.32-.16.15-.26.33-.31.55s-.05.49.01.83l.14.8Z" style="fill:#00563f; stroke-width:0px;"/><path d="M427.12,191.85l-13.73,2.3-.5-2.93c-.36-2.14.8-3.44,3.48-3.89.81-.14,1.52-.14,2.12,0,.61.14,1.13.47,1.58.99l5.93-3.02.33,1.93-5.58,2.68.18,1.09,5.86-.98.31,1.82ZM414.93,192.02l4.28-.72-.18-1.04c-.05-.32-.15-.57-.28-.74-.13-.17-.29-.3-.49-.38-.2-.06-.43-.09-.7-.09-.27,0-.58.04-.93.1-.35.06-.65.13-.91.21-.26.08-.47.19-.65.33-.32.29-.43.75-.32,1.38l.16.95Z" style="fill:#00563f; stroke-width:0px;"/><path d="M425.81,184.17l-14.22-.54-.26-1.52,13.25-5.15.31,1.82-2.86,1.03.42,2.48,3.04.04.31,1.82ZM420.25,180.47l-4.83,1.73v.04s5.13.06,5.13.06l-.31-1.82Z" style="fill:#00563f; stroke-width:0px;"/><path d="M424.3,175.25l-13.73,2.3-.3-1.75,7.81-4.14v-.04s-8.28,1.39-8.28,1.39l-.31-1.82,13.73-2.3.29,1.71-7.78,4.17v.04s8.26-1.39,8.26-1.39l.31,1.82Z" style="fill:#00563f; stroke-width:0px;"/><path d="M422.79,166.36l-13.73,2.3-.46-2.7c-.18-1.05,0-1.9.52-2.54.53-.65,1.35-1.06,2.49-1.25l6.42-1.08c1.29-.22,2.28-.09,2.99.39.71.47,1.16,1.25,1.34,2.34l.43,2.54ZM410.6,166.53l10.03-1.68-.14-.84c-.09-.51-.29-.85-.6-1.02-.31-.17-.76-.2-1.36-.1l-6.62,1.11c-.54.09-.94.26-1.2.51-.26.25-.35.65-.25,1.18l.14.84Z" style="fill:#00563f; stroke-width:0px;"/><path d="M141.65,171.05c-2.35.64-4.48,1.33-6.45,2.06-2.09.71-9.93,3.64-16.42,8.51-5.15,3.86-8.88,6.72-9.8,7.27-.92.55-1.89,2.62.28,3.64,1.88.89,6.13,4.13,7.21,10.52,1.08,6.38,12.71,73.95,11.48,77.53-.62,1.79-.85,2.86.24,3.38,1.06.5,2,.4,3.39-.38,0,0,0,0,0,0,4.23-3.44,14.42-9.55,18.52-11.97.98-.94.65-1.37.55-1.41-1.49-.61-2.45-1.92-2.99-3.85l-2.44-15.58c2.16-.23,5.35-.88,8.43-1.71,23.02-6.23,27.26-17.61,26.6-21.83l-7.6-49.95c-.66-4.22-7.98-12.47-31-6.23ZM158.92,227.18c.73,4.65-2.44,9.43-7.04,10.61-4.6,1.18-8.96-1.66-9.69-6.31l-5.84-37.27c-.73-4.65,2.44-9.43,7.04-10.61,4.6-1.18,8.96,1.66,9.69,6.31l5.84,37.27Z" style="fill:#00563f; stroke-width:0px;"/><path d="M112.29,276.11c-.46-2.88-5.27-30.27-5.27-30.27h-.05c-1.7-7.31-12.27-9.63-15.12-9.9-3.73-.36-32.53-3.11-36.1-4.86-1.8-.88-2.77-3.05-3.29-4.97,0,0-1.14-6.96-1.68-10.79-.5-3.6,1.43-9.05,8.07-11.35,10.89-3.76,13.54-.8,14.56,5.89,1.02,6.7,1.56,9.64,1.56,9.64.1.33.35.73.92.86l22.62.35c2.17.14,3.9.37,4.6-.13.97-.69.33-1.53-1.5-3.65-.89-1.03-1.72-4.07-2.1-5.64l-2.29-14.55c-.21-1.54-1.16-7.29.53-10.79,1.57-3.24-1.82-4.42-3.85-3.05-3.67,2.47-8.01,3.16-12.72,3.25-6.83.13-18.47,3.22-23.17,4.95-6.99,2.56-19.67,8.83-26.33,15.85-4.63,4.88-7.36,7.01-9.55,7.3-2.99.11-3.76,1.91-3.83,2.43-.03.2.18,1.89,2.36,2.9,2.27,1.05,4.95,3.34,6.18,7.79l2.67,17.02s0,5.54,7.16,6.39l38.46,4.29s8.18,1.05,9.24,7.78c.17,1.08.64,4.36,1.19,7.56l2.32,14.72c-.22,2.84-1.78,6.44-7.58,8.68-10.73,4.14-13.68,3.1-14.99-2.47l-3.55-22.56c-.15-.6-.61-.83-.95-.91.74-.04-23.1-1.14-26.87-1.25-.78-.02-1.71.09-1.55,1.1.16,1.01,4.13,3.5,4.74,8.72,0,.03.01.05.01.07,0,0,1.29,8.12,1.73,11.05.35,2.32,2.78,10.63-1.23,14.58-2.71,2.67-1.25,5.88.32,6.06,2.36.26,1.97-2.2,7.76,1.1,9.98,5.7,38.41,2.78,56.41-12.42,13.83-11.68,10.62-17.9,10.16-20.79Z" style="fill:#00563f; stroke-width:0px;"/><path d="M230.61,166.4c-4.72-20.01-16.61-10.21-19.32-8.24-2.49,1.81-7.27,6.26-7.27,6.26-3.11,2.18-3.95-2.75-4.71-3.42,0,0-1.32-2.58-4.23-2.34-2.91.25-12.42,2.19-15.06,4.88-2.4,2.44.04,4.31,1.02,5.28,1.02,1.02,1.04,1.4,1.21,2.22.17.82,10.81,69.44,10.81,69.44.08.51.57.79.97.66,1.62-.53,17.37-5.49,20.62-6.62,1.43-.5,2.26-.71,1.11-2.04-.84-.98-2.4-1.56-3.01-4.77-.11-.56-.39-2.5-.82-5.22h0s-5.96-38.06-5.96-38.06c-.02-.14-.01-.28-.02-.42-.16-1.16-.29-2.49-.23-3.27.23-2.73.49-6.27,6.37-6.65,1.5-.1,3.37.53,4.92,2.35,5.68,6.65,14.31,2.27,16.06,1.22,0,0-.97-5.03-2.44-11.26Z" style="fill:#00563f; stroke-width:0px;"/><path d="M267.34,219.47s-9.7-62.67-9.82-62.51c-.55.75-4.08,3.9-10.47,4.87-4.26.65-7.35-.26-9.29-.6,0,0,8.91,56.63,9.18,58.47.27,1.84.36,4.62-.12,6.07-.7,2.11-.35,3.28,2.14,2.64,2.49-.65,12.42-1.52,17.88-2.12,3.35-.37,5.05-.38,4.87-1.53-.17-1.08-3.24-1.48-4.37-5.29Z" style="fill:#00563f; stroke-width:0px;"/><path d="M255.34,146.83c-1.38,6.01-7.37,8.25-12.34,7.9-5.87-.41-9.57-6-6.86-11.85,4.05-8.74,22.42-6.81,21.74-5.54-2.11,3.52-1.52,5.03-2.54,9.49Z" style="fill:#00563f; stroke-width:0px;"/><path d="M343.33,225.68c-.42-.73-2.7-4-3.42-7.93s-9.07-59.71-9.07-59.71c-.7-4.67-8.55-17.29-31.53-12.73-7.96,1.58-13.66,4.05-17.68,6.81-2.34,1.32-3.91.93-3.91.93-1.8-.64-4.29-1.18-5.82-1.14-3.36.07-5.87,1.76-5.61,3.53.11.73.7,1.37,1.57,1.87,5.22,4.97,5.04,9.86,5.66,13.5s7.99,52.84,7.99,52.84c.06.17.35.86,1.11.81,9.17-.56,15.13-.51,18.7-.55,2.91-.03,3.5.31,3.91-1.13.48-1.68-2.5-1.29-3.85-7.5l-7.04-45.95c-.78-5.15,2.31-10.24,6.92-11.02,5.49-.93,9.41,5.47,10.18,10.62,0,0,8.12,53.67,8.16,53.92h.02s-.03,1.33,1.61,1.54c1.64.21,13.93,1.14,21.27,2.94,1.17.29,1.25-.92.83-1.64Z" style="fill:#00563f; stroke-width:0px;"/><path d="M403.57,144.7s0,0,0-.01c.91-.53,1.38-.97,1.32-1.7-.11-1.27-.61-1.62-2.14-2.07-15.39-4.54-36.87-2.21-44.39-.52-13.4,3.01-16.7,9.72-16.2,12.9l6.41,40.93c.53,3.39,6.16,10.13,22.95,11.74,5.92.57,14.61-.28,17.13-.67l3.21,21.85c.68,4.36-2.65,7.66-7.4,7.33-4.74-.32-10.47-6.75-10.78-14.3-.05-1.16-1.01-1.25-1.01-1.25h0c-1.64-.13-14.05-2.49-18.01-4.49-2.77-1.57-5.16-2.97-6.16-1.88-1.18,1.3-.17,1.66.13,1.92,0,0,2.35,3,3.15,7.44.8,4.44,1.74,7.36,2.92,9.55,1.9,4.45,9.45,14.47,31.38,15.58,13.05.66,17.95-2.5,22.58-5.75,1.47-1.03,5.11-2.1,7.34-2.1,2.13,0,2.91-.88,2.61-2.83-.19-1.25-1.03-1.91-2.2-2.6,0,0-2.88-1.92-3.65-6.8,0,0-9.92-65.84-11.65-77.07-.32-2.09.8-4.22,2.45-5.18ZM385.89,187.66c.68,4.32-2.62,8-7.33,8.19-4.71.18-9.12-3.2-9.79-7.52l-2.85-18.17-1.87-11.96c-.68-4.32,2.62-8,7.33-8.19,4.71-.18,9.12,3.2,9.79,7.52l4.72,30.13Z" style="fill:#00563f; stroke-width:0px;"/><path d="M154.42,137.83c-.05-.35-6.51-41.47-7.53-47.64-1-6.05-2.66-6.78-6.58-8.07-3.7-1.22-12.92-3.36-25.33.63-15.23,4.89-19.32,10.44-21.99,13.73-3.07,3.8-3.96,6.4-3.13,12.29.37,2.6,6.66,41.76,7.28,45.52.37,2.36,1.22,8.48,6.24,9.46,4.78.94,15.17,1.62,25.11-1.96,9.94-3.58,18.16-7.88,23.65-14.32,3.37-3.95,2.64-7.29,2.27-9.65ZM126.47,151.09c-4.54,1.37-8.44.17-9.61-5.35,0,0-5.49-36.61-6.25-41.52-1.27-8.22,6.73-10.3,6.73-10.3,6.32-2.33,9.55.95,10.23,5.41.34,2.25,6.46,36.98,6.52,42.05.06,5.54-2.63,8.22-7.61,9.72Z" style="fill:#00563f; stroke-width:0px;"/><path d="M76.95,70.4c-2.47-.08-6.38-.64-8.12-.91-21.69-4.73-41.91,2.34-57.1,13.89-3.94,3-7.15,4.98-9.56,5.8-2.59.88-2.77,2.87-1.01,3.46,1.95.66,6.94,3.57,7.46,6.87,1.02,6.53,13.67,87.81,13.67,87.81.08.8.12,1.6.1,2.35-.06,1.98-1.2,4.76-3.96,7.37-1.13,1.07-1.13,1.99-.51,4.08.4,1.35,4.05-.06,5.9-1.49,6.3-5.73,13.47-11.19,22.68-14.42,1.41-.43,1.36-2.11,1.32-2.42-.58-3.68-4.56-28.76-4.58-28.88-.35-2.22-.13-2.74,3.58-2.43.81.07,1.83-.01,2.99-.21,3.98-.44,11.54-1.83,20.35-6.19,12.87-6.37,13.91-13.89,13.5-15.81l-7.17-45.78c-.15-1.06-.23-1.79-.25-2.08-.33-3.74,2.44-5.98,3.53-7.31,1.09-1.33.44-3.62-2.81-3.73ZM58,129.82c.38,2.78-1.75,6.62-8.34,8.49-4.49,1.27-8.32.59-9.49-2.78l-1.97-12.57c-1.6-10.86-3.06-20.82-4.66-31.68-.7-4.73,3.95-7.73,7.55-8.75,3.48-.99,9.15.09,9.95,2.91l6.95,44.38Z" style="fill:#00563f; stroke-width:0px;"/><path d="M185.6,135s-11.27-73.71-12.54-81.94c-.56-3.57-1.75-4.02-4.2-2.52-2.45,1.5-12.35,6.87-15.65,7.22-3.3.36-3.24,3.7-2.67,4.39.74.91,3.2.45,3.74,2.44.1.36.21.91.33,1.58l11.43,72.07.04.26c.23,1.73.52,4.79.07,6.34-.65,2.24-.3,3.42,2.1,2.51,2.4-.91,8.56-2.82,16.33-5.18,3.17-.96,5.5-.98,5.31-2.15-.18-1.1-3.15-1.21-4.29-5.03Z" style="fill:#00563f; stroke-width:0px;"/><path d="M260.44,127.06c-.21-.74-1.31-1.35-2.36-1.73,0,0,0,0-.01-.01-2.05-.73-3.85-3.29-4.37-6.54-.54-3.36-7.07-44.54-7.83-49.13-.76-4.59-7.48-14.62-30.59-11.26-23.11,3.36-27.44,15.14-26.78,19.26,0,0,1.04,7.01,1.12,7.5.39,2.45-1.7,6.64-.8,7.89.43.6,1.22.39,2.18-.18,5.53-4.93,15.42-8.15,19.67-9.53-.21-1.53-.39-2.89-.43-3.81-.48-5.39,3.91-7.89,6.83-8.31,4.43-.64,8.61,2.26,9.57,6.51.5,1.6.94,4.68-.51,7.9-2.36,5.23-10.53,5.56-17.32,7.77-5.72,1.86-10.49,5.25-13.58,9.32-.13.2-.26.42-.4.68-1.98,2.98-4.02,7.1-3.33,12.05,1.84,13.17,7.89,22.41,26.02,20.97,8.84-.7,17.87-4.21,23.56-5.59,6.85-1.66,11.39-1.88,18.12-1.78,1.53.02,1.48-1.2,1.26-1.97ZM225.9,121.4c-5.84,2.64-12.98,1.2-14.62-5.93-1.31-5.69,2.98-10.34,8.88-11.92,4.39-1.18,5.42-1.37,8.66-3.89,1.24-.86,6.53,17.46-2.91,21.73Z" style="fill:#00563f; stroke-width:0px;"/><path d="M330.71,126.25c-.99-1.2-2.65-3.99-3.33-6.96-.22-.95-8.05-50.34-8.65-54.72-.58-4.24-8.79-18.52-31.85-13.75-7.99,1.35-11.7,5.06-15.73,7.87-2.11,1.31-5.24.29-6,.02-2.48-.9-4.16-.97-5.85-.75-1.07.13-2.03.4-2.86.74-.58.43-1.08,1.16-.61,2.25,1.09,1.35,2.95,4.71,3.84,8.59.9,3.87,8.92,56.2,9.05,56.98.17.99.7,2.6,2.76,2.27.09-.01.06-.02.14-.02,8.75-1.21,14.5-.58,17.24-.77,2.92-.2,3.51.19,3.93-1.12.5-1.53-2.49-1.1-3.78-6.67l-7.23-45.47c-.69-4.71,1.23-9.5,6.75-10.39,3.71-.6,9.32,2.5,10.25,7.96,0,0,8.3,53.25,8.43,53.91s.9.84,1.24.86c5.56-.33,15.93-.07,21.57.71,1.24.17,1.01-1.14.69-1.53Z" style="fill:#00563f; stroke-width:0px;"/><path d="M400.91,121.85c-4.5-3.79-4.98-13.98-4.98-13.98,0,0-14.58-92.26-15.11-95.96-.53-3.7-1.82-4.29-4.39-3.05-2.57,1.23-12.94,5.53-16.4,5.51-3.46-.02-3.42,3.4-2.8,4.15,1.05,1.28,3.35.83,3.91,2.91.1.38.22.95.34,1.65l3.98,25.38c-2.6-.2-5.47-.26-8.63-.14-23.59.96-28.01,10.76-27.36,14.87l7.95,50.73c.7,4.45,7.61,15,31.14,13.71,3.96-.22,6.9-.47,11.64-1.02,6.39-.53,13.42-.31,21.9,1.96,0,0,.07.06.06.03.49.07.95.19,1.29-.05,1.55-1.1-.02-4.57-2.54-6.69ZM374.72,107.54c.71,4.54-2.56,8.4-7.26,8.6-4.7.19-9.13-3.36-9.84-7.9l-6.36-40.58c-.71-4.54,2.56-8.41,7.26-8.6,4.7-.19,9.13,3.36,9.84,7.9l6.36,40.58Z" style="fill:#00563f; stroke-width:0px;"/><path d="M98.69,32.87c-12.17,7.07-23.34,15.09-33.41,23.87,6.01.6,10.94,1.42,15.53,2.41,7.39-5.8,15.33-11.19,23.79-16.11,36.26-21.08,77.56-31.24,117.77-31.24s78.02,9.86,109.53,28.85c7.84-3.54,12.31-4.49,13.62-5.33-26.34-17.67-58.34-29.25-93.59-33.51-53.27-6.44-107.7,4.6-153.24,31.07Z" style="fill:#00563f; stroke-width:0px;"/></g></svg>