<svg xmlns="http://www.w3.org/2000/svg" viewBox="0 0 182.77 85.36"><title>Red Lobster logo</title><path d="M540.54,519.37a127.92,127.92,0,0,1,13.3-.73,82.76,82.76,0,0,1,16.39,1.63c3.86.82,7.06,1.83,9.57,3.73,0,0-23.58-.88-42.58,4.58,0,0-3.3-7,3.3-9.21" transform="translate(-420.61 -469.32)" style="fill:#e3173e"/><path d="M497.62,530.16c-.24-.31-.88.21-.88.21a12.9,12.9,0,0,0-.42-2.06,14.34,14.34,0,0,1-1.6-3.46c-.11-.4-1-.94-1-.94a7.12,7.12,0,0,0,.65-1.79c.1-3.59,2.74-7.35,11-10.06,0,0,7.3,1.26,10,5.6,0,0-15.44,2.38-15,15.41a22.62,22.62,0,0,1-2.72-2.9" transform="translate(-420.61 -469.32)" style="fill:#e3173e"/><path d="M470.31,511.35s7.3,7.84,6.59,17.08l-.73,4.76a16.06,16.06,0,0,0-1.78-3.93s-3.23-6.16-2.68-9.93c0,0-9.12-3.79-4.2-8.83Z" transform="translate(-420.61 -469.32)" style="fill:#e3173e"/><path d="M483.26,516.09s3.93,7,3.79,8.83c1.68,5.21,1.22,4.12,1.68,9-4.9-6.44-4.3-4.64-4.91-5.19-1.12-1,0-4.2,0-4.2s-6.53-8-5.7-11.72a51.87,51.87,0,0,0,5.32,0c0,.22-.18,3.3-.18,3.3" transform="translate(-420.61 -469.32)" style="fill:#e3173e"/><g style="opacity:0.5"><path d="M429,538.87l-.9-13.62,4.29,10.17s-1.1,3.46-3.39,3.46" transform="translate(-420.61 -469.32)" style="fill:#fff"/></g><path d="M460.26,530.24a4.77,4.77,0,0,0,2.77,2.56,23.56,23.56,0,0,1-2-4c-.14-.4-.37-1.38-.37-1.38l-.64-1.63-1-3.19-.59,4.11s.84,1.75,1.83,3.51" transform="translate(-420.61 -469.32)" style="fill:#e3173e"/><path d="M473.13,524.9a24.13,24.13,0,0,0,1.2,3c.54,1.12,1.63,3.47,1.63,3.47s.32-1.94.42-2.93a12.72,12.72,0,0,0,0-2Z" transform="translate(-420.61 -469.32)" style="fill:#e3173e"/><g style="opacity:0.5"><path d="M423.78,514.91a4.19,4.19,0,0,0,.66,3.22l.84-2Z" transform="translate(-420.61 -469.32)" style="fill:#fff"/></g><path d="M483.83,526.66l3.73,1.69a14.12,14.12,0,0,1,.28,1.65c.11,1,.19,2.08.19,2.08l-3.3-3.61-.53-.16s-.3-.21-.33-.89a7,7,0,0,1,0-.76" transform="translate(-420.61 -469.32)" style="fill:#e3173e"/><path d="M551.49,525.07c-5.72.79-11.74,2.29-11.74,2.29a8.89,8.89,0,0,1-.41-2,5.13,5.13,0,0,1,.25-1.7l20.84-1.1,3.3,1.2s-6.52.49-12.24,1.28" transform="translate(-420.61 -469.32)" style="fill:#770d29"/><path d="M490.39,516h0a11.85,11.85,0,0,0,1.89,3,6,6,0,0,0,2.38,1.33,13.1,13.1,0,0,1,2.67-3.6c.86-.78-6.44-.78-6.91-.78" transform="translate(-420.61 -469.32)" style="fill:#231f20"/><path d="M494.66,525.23l2.14,4.25,1.07,1,.46-1.19a5.51,5.51,0,0,1-.12-3.76c.9-1.87-3.52-.37-3.54-.34" transform="translate(-420.61 -469.32)" style="fill:#231f20"/><path d="M490.76,515.7a36.15,36.15,0,0,0,4.39-.34,39.19,39.19,0,0,0,3.81-1s-1.83,1.83-2.51,2.47a29.35,29.35,0,0,0-2.28,3.05,20.93,20.93,0,0,1-1.8-1.71,26.21,26.21,0,0,1-1.63-2.47" transform="translate(-420.61 -469.32)" style="fill:#770d29"/><path d="M494.86,524.21a16.8,16.8,0,0,1,4.72-3.42,31,31,0,0,1,6.89-1.87s-5.24,2.16-7.16,4.24-1.83,2.48-1.94,3.16a24.75,24.75,0,0,0,.17,3.27s-.79-1.46-1.16-2.2-1.53-3.16-1.53-3.16" transform="translate(-420.61 -469.32)" style="fill:#770d29"/><polyline points="157.37 46.01 157.34 46.01 157.37 46.01" style="fill:#fff"/><path d="M541.62,517.61c-.31-.29-1.91-1.64-1.91-1.64a4.84,4.84,0,0,1-2,.7,13.23,13.23,0,0,0-1.55-.26c-.5-.05-1.59-1.1-1.59-1.1s-.71.85-1.1.93a15.58,15.58,0,0,1-3-.08c-.37,0-1.1-1-1.1-1s-1,1-1.55,1c-.93,0-1.87,0-2.83.1a5.52,5.52,0,0,1-2.11-.85s-1.1,1.1-1.6,1.13-1,.09-1.51.16-1.25-.86-1.25-.86-.59,1.07-.89,1.1c-12.28,1.66-23.53,5.9-18.47,13.84,0,0,11.32,26.66,48.81,22.87,33.25-3.35,36.26-26.85,36-30.37,0,0-21.17,14.12-44.12,5.41,0,0-3.34-4.35,2-9.65.59-.56.3-.9-.31-1.46" transform="translate(-420.61 -469.32)" style="fill:#e3173e"/><path d="M510.48,544A40.86,40.86,0,0,1,500,531.52c-.05-.1-.56-1.2-.62-1.29a5,5,0,0,1-.85-4s15.91,22.36,43.95,22.36c30.43,0,41-24.34,41-24.34a29.08,29.08,0,0,1-.82,4.71,32.12,32.12,0,0,1-2.37,5.86s-2.82,6.64-11.43,11.92a46.44,46.44,0,0,1-18.5,6.17,67.38,67.38,0,0,1-13.51.46c-11.8-.78-20.39-4.8-26.35-9.45" transform="translate(-420.61 -469.32)" style="fill:#770d29"/><g style="opacity:0.5"><path d="M535.68,519.37c-.44-.1-8.68-1.19-22,1.2,0,0,15.28,1.76,19.83,3.56a8.84,8.84,0,0,1,2.14-4.76" transform="translate(-420.61 -469.32)" style="fill:#fff"/></g><path d="M427.17,522.27s-7.83-2.55-4.46-11.17c0,0-4.27-5.8,1.56-10.46,0,0-2.4-8,6.23-10.55a9.1,9.1,0,0,1,9.23-6s2.5-5.57,11.85-3.3a11.05,11.05,0,0,1,12.26-1.54s3.53-3.47,30.32.45c27.61,4,20.43,7.69,20.43,7.69A144.39,144.39,0,0,1,527.52,494s-8.14.91-8.42,2.87c0,0,5.49,1.79,5.49,2.5l-1.24,5.76-5.27-.81s-15.58,2.09-18.68,3.9c0,0-16.85,11.07-41.26-1.12a12.63,12.63,0,0,0-7.58.7s-6.82,2.49-7.94,0c0,0-3.22,4.48-5.32,2.79a3.6,3.6,0,0,1-3.66,3.51,5,5,0,0,1-3.59,3.19s.73,5-2.93,5" transform="translate(-420.61 -469.32)" style="fill:#e3173e"/><path d="M542.86,496.63c-1.29.73-2.73,1.79-4.54,3a74.06,74.06,0,0,0,15.56,11c6.75,3.51,15.58,6.27,23.9,5.28a88.21,88.21,0,0,1-17.65-10c-4.11-3-12.87-11-12.87-11s-1.26,0-4.39,1.74" transform="translate(-420.61 -469.32)" style="fill:#e3173e"/><path d="M529.88,476s31.86-10.54,46.88,8.64S580.89,519,580.89,519,565.43,489.31,548,495c-11.49,3.8-7.87,7-10.81,5.43-.34-.19-2.09.5-2.09.5a5.74,5.74,0,0,0-1.17-1.67c-.77-.52-1.75-1.25-2.85-2a4.89,4.89,0,0,0-1.91-.23s.06-1.37-.28-1.74c-.91-1-2.38-1.44-3.75-2.33l-11.25-6.23Z" transform="translate(-420.61 -469.32)" style="fill:#e3173e"/><path d="M436.09,539.39a7,7,0,0,1-4.06,4.15,10.5,10.5,0,0,1-4.49.73l-1.26-20.6s7.17-17.85,23.31-18.29a9.08,9.08,0,0,1-.33,4.6c-.61,1.62-1.63,3.45-2.81,4a3,3,0,0,1-2.79.05,5.54,5.54,0,0,1-1.79,5.15,8.86,8.86,0,0,1-3.06,1.79,14.17,14.17,0,0,1,.79,4.26,8.49,8.49,0,0,1-1,3.89,13.41,13.41,0,0,1-2.42,2.89s.37,2,.42,2.63a9.29,9.29,0,0,1-.58,4.73" transform="translate(-420.61 -469.32)" style="fill:#e3173e"/><path d="M489.68,511.62s-1.41,4.63,5.05,9.1c0,0,2.39-8.12,13.33-7.84,0,0-7.72-8-18.38-1.26" transform="translate(-420.61 -469.32)" style="fill:#e3173e"/><path d="M495,479.84s11.64-9.52,15-5.86l.28,9.65Z" transform="translate(-420.61 -469.32)" style="fill:#e3173e"/><path d="M509.75,474.94s8.84-4.89,9-4.05c0,0-.7,1.68,5.76.83,0,0-1.54,1.4,3.79,1.4,0,0,3.23,2.37,1,5a33.15,33.15,0,0,1-3.66,3.79,23,23,0,0,1-10.37,5.16l-5.34-2.51Z" transform="translate(-420.61 -469.32)" style="fill:#e3173e"/><path d="M462.6,508.83l-4.06,4.35s-1,5.17,2.66,14.13a13,13,0,0,0,3.7,6.75s-3.57-.17-5.81-5.34c0,0-11.65-17,0-21Z" transform="translate(-420.61 -469.32)" style="fill:#e3173e"/><path d="M516.16,487.86l6.63-.53s.37,0,.49.08.07.41.07.41l.62,4.07Z" transform="translate(-420.61 -469.32)" style="fill:#e3173e"/><path d="M534.39,498.94s3.24-5.4,11.62-7a17.91,17.91,0,0,1,15.65,4.51,19.62,19.62,0,0,0-9.48-2.63c-4,.22-11.38,2.93-13.92,6.63a12.52,12.52,0,0,0-1.39-.53,12.82,12.82,0,0,0-1.57.4Z" transform="translate(-420.61 -469.32)" style="fill:#770d29"/><g style="opacity:0.5"><path d="M578.76,494.84s-4.16-18-29-19.12L548.05,479s19.59-.11,30.7,15.84" transform="translate(-420.61 -469.32)" style="fill:#fff"/></g><path d="M427.81,540.75c1,0,3.35.42,5.08-2.64,1-1.73,1.23-4.35.86-8.15,0,0,5.71-5.8,2.12-10.24,0,0,7.22-3,5.52-8.6,0,0,4.26-.42,5-2.32.12-.29,2.93-1,2.78-.31-.49,2.29-2.08,7-5.91,5a6.94,6.94,0,0,1-.55,3.66,7.09,7.09,0,0,1-4.27,3.66s2.61,7.26-2.64,11c0,0,2,7.07-2.35,10.34A9.85,9.85,0,0,1,428,543.8Z" transform="translate(-420.61 -469.32)" style="fill:#770d29"/><path d="M425.73,521.32s3-2.15,2.15-5.57c0,0,3.66-2,3.66-3.8,0,0,4.29-1.29,4-4.11,0,0,5.33-.71,5.9-4.6,0,0,6.5,1.34,9.24-1s9.35-.13,9.35-.13l1.1,6.25L458,506.83l-3.32.32-5,.75a17.36,17.36,0,0,1-5,1c-1.72-.12-2-1.25-2-1.25l-.52.54s-1.76,2.25-2.7,2.59a6.68,6.68,0,0,1-2.2.26,5,5,0,0,1-1,2.13,8.56,8.56,0,0,1-2.53.86,2.87,2.87,0,0,1-.56,1.28,19.3,19.3,0,0,1-2.86,2.31l-.09,2.08-.77,1.35-1.85,1.39Z" transform="translate(-420.61 -469.32)" style="fill:#770d29"/><path d="M460.18,502.16a69.19,69.19,0,0,0,30.53,4.58c3.45-.31,7-1.68,10.65-2.56,2.85-.68,6.08-1.49,8.27-1.93,6-1.2,9-1.14,11.17-.89,2.88.33,2.89,1,2.89,1l-.48,2.64-5.08-1-1.39.15L503,506.57l-3.26,1.31L495.19,510s-16.91,6.84-34-1.62Z" transform="translate(-420.61 -469.32)" style="fill:#770d29"/><path d="M515.72,487.08l4-2a6.89,6.89,0,0,0-3.5-2.93,9.8,9.8,0,0,0-5.82.26,20.1,20.1,0,0,1,3.83,1.62c.94.56,1.59,1,1.59,2,0,.4-.08,1-.08,1" transform="translate(-420.61 -469.32)" style="fill:#770d29"/><g style="opacity:0.5"><path d="M500.63,482.25s-9.74-1.38-19-2c-6.45-.44-12.58-.4-15.38.25a15.41,15.41,0,0,0-2.2,5.28s8.76-5,36.54-3.53" transform="translate(-420.61 -469.32)" style="fill:#fff"/></g><g style="opacity:0.5"><path d="M460.14,480.82a7.2,7.2,0,0,0-3.12-.24,7.69,7.69,0,0,0-3.33,1.49l-.94,4a14.24,14.24,0,0,1,5.58-.64,17.6,17.6,0,0,1,1.83-4.6" transform="translate(-420.61 -469.32)" style="fill:#fff"/></g><g style="opacity:0.5"><path d="M447.66,487.16a7.08,7.08,0,0,0-2.33.37,19.12,19.12,0,0,0-3.09,1.29l-.16-4.2a6.19,6.19,0,0,1,2.69-1.68,8.87,8.87,0,0,1,3.82-.08h.08Z" transform="translate(-420.61 -469.32)" style="fill:#fff"/></g><g style="opacity:0.5"><path d="M437.52,486.83a10.11,10.11,0,0,0-2.86,1.34,6.59,6.59,0,0,0-1.93,2.37,29.9,29.9,0,0,0,.19,4.47,19.17,19.17,0,0,1,2.61-2.61,8.24,8.24,0,0,1,2.28-1.23Z" transform="translate(-420.61 -469.32)" style="fill:#fff"/></g><g style="opacity:0.5"><path d="M428.84,493.64s-3.18,1.88-3,5.31l.83,2.88a20.32,20.32,0,0,1,1.68-2.37,8.84,8.84,0,0,1,1.3-1.2,14.82,14.82,0,0,1-.76-4.62" transform="translate(-420.61 -469.32)" style="fill:#fff"/></g><g style="opacity:0.5"><path d="M423.78,505.18s-1.69,1.38-.22,4.08l1.7-1.71Z" transform="translate(-420.61 -469.32)" style="fill:#fff"/></g><g style="opacity:0.5"><path d="M513.17,475.89l4.32-2.28a39.6,39.6,0,0,0,6.23,1.27Z" transform="translate(-420.61 -469.32)" style="fill:#fff"/></g><path d="M503.35,480.75c-3.78-.78-7-1.28-7-1.28a24.44,24.44,0,0,1,6.51-.77,42.12,42.12,0,0,1,6.43,1.13v2.32s-2.16-.62-5.94-1.4" transform="translate(-420.61 -469.32)" style="fill:#770d29"/><path d="M541.91,498.33a13.25,13.25,0,0,0-1.13.81,9,9,0,0,0-1,1.08A84.37,84.37,0,0,0,552,509c7.64,4.26,11.05,4.8,13.52,5.44a33.47,33.47,0,0,0,9.92,1s-9.12-1.72-13.46-3.6a78.29,78.29,0,0,1-13.32-7.37,68.65,68.65,0,0,1-6.76-6.19" transform="translate(-420.61 -469.32)" style="fill:#770d29"/><path d="M523.76,491.31l-.52-3.42a386.39,386.39,0,0,1,39.47-5.57c11.06-1,30.63-10.54,30.63-10.54s-10.16,10.66-37.72,14.41c-15.62,2.12-31.13,5-31.13,5Z" transform="translate(-420.61 -469.32)" style="fill:#e3173e"/><path d="M523.94,489.54c15.17-3.7,41.47-4,60.38-11.89l-.59.93-11.15,4.11-19.27,4.14-29.16,4Z" transform="translate(-420.61 -469.32)" style="fill:#e3173e"/><path d="M537,509.52c-8.1-4.5-13.16-5-13.16-5l.37-3.9s3.72.64,10.8,4.36c6.23,3.27,14.67,9.13,22.47,13.18,6.43,3.34,15,5.17,22,6.08,12.27,1.58,15.91,1,15.91,1s-3.3,3-16.7,1.3a71.56,71.56,0,0,1-26.81-8.34c-7.13-4-11-6.5-14.87-8.67" transform="translate(-420.61 -469.32)" style="fill:#e3173e"/><path d="M524.32,503.07c18.14,4.37,30.49,19.91,54.36,22.73l-1.56.83L565.91,524l-8.65-3.41-12.09-6.34-11.64-6.43L524,504.42Z" transform="translate(-420.61 -469.32)" style="fill:#e3173e"/><path d="M603.39,524.24a136.93,136.93,0,0,1-18.81-.06,13.29,13.29,0,0,0,0-1.93,30.23,30.23,0,0,1-2.71,1.67l-1.28-.14c-4.51-3.66-13.06-5.09-21-5.54-13.1-5.73-20.71-13.92-34.52-17.92.08-.48.15-.8.15-.8v-.11a1,1,0,0,0-.47-.78,14.13,14.13,0,0,0-3.16-1.46l-1.51-.54a3.55,3.55,0,0,1,.73-.42A20.65,20.65,0,0,1,525,495c.83-.15,1.55-.26,2-.32a5,5,0,0,1,1.41,1,1.86,1.86,0,0,1,.1.44,5.24,5.24,0,0,1,0,.68v.2l0,.65.65,0h.37a6.62,6.62,0,0,1,.73,0l.32.06.09,0h0c1.07.73,2,1.46,2.84,2a3.23,3.23,0,0,1,.62.8,6.76,6.76,0,0,1,.35.64l.24.5.52-.21.71-.25A5.31,5.31,0,0,1,537,501a2.93,2.93,0,0,0,1.29.45,1.12,1.12,0,0,0,.71-.26l.07-.08a76.41,76.41,0,0,0,14.55,10c5.86,3.05,13.28,5.55,20.65,5.55a31.13,31.13,0,0,0,3.6-.21l.83-.1-.07-.14c.48.79.87,1.46,1.16,2l.57,1,.45.86.56-.78a25.61,25.61,0,0,0,3.92-14c0-5.86-1.86-13.18-8.06-21.1a23.11,23.11,0,0,0-1.71-1.8c8.61-2.83,16.2-6.91,21-13.15a105.44,105.44,0,0,1-24.2,10.08l-.14-.1c-7.07-5.47-16.06-6.81-23.08-6.8a69.68,69.68,0,0,0-18.62,2.68,5.49,5.49,0,0,0-1.83-2.54l-.16-.11h-.19a10.74,10.74,0,0,1-3.08-.3,1.44,1.44,0,0,1-.27-.11l1.33-1.23-1.88.25a23.76,23.76,0,0,1-3,.23,4.57,4.57,0,0,1-2-.29l-.1-.07v-.22a.71.71,0,0,0-.37-.5.88.88,0,0,0-.4-.09,3.12,3.12,0,0,0-.95.21,63.71,63.71,0,0,0-7,3.38v-.06l-.15-.16a3.46,3.46,0,0,0-2.63-1c-2.59,0-5.8,1.76-8.47,3.45a55,55,0,0,0-4.54,3.23l-.71-.11a151.41,151.41,0,0,0-21.05-1.88c-6.28,0-8.5.86-9.29,1.34a12.82,12.82,0,0,0-5-1.08,11.57,11.57,0,0,0-7.32,2.65,18.24,18.24,0,0,0-4-.49c-5.18,0-7.4,2.82-8,3.84a9.69,9.69,0,0,0-9.34,6.13,9.51,9.51,0,0,0-5.39,3.87,8.91,8.91,0,0,0-1.31,4.71,11,11,0,0,0,.23,2.22,7.64,7.64,0,0,0-3,6,9.39,9.39,0,0,0,1.44,4.78,11.55,11.55,0,0,0-.77,4,7.71,7.71,0,0,0,2.86,6.06,9.86,9.86,0,0,0,2,1.3c-.28.6-.42,1-.43,1l-.05.13L427,544.82l.51,0s.24,0,.62,0a11,11,0,0,0,4.16-.8,7.63,7.63,0,0,0,4.39-4.5,9.13,9.13,0,0,0,.66-3.44c0-.44,0-.94-.07-1.53s-.26-1.77-.37-2.37a14.22,14.22,0,0,0,2.29-2.8,8.36,8.36,0,0,0,1-4.51,13.78,13.78,0,0,0-.66-3.59,8.85,8.85,0,0,0,2.74-1.72,6.49,6.49,0,0,0,2.06-4.64v0a3.08,3.08,0,0,0,.51,0,4.47,4.47,0,0,0,1.83-.44c1.46-.73,2.44-2.64,3.09-4.32a7.52,7.52,0,0,0,.41-1.62l.59-.19a13,13,0,0,1,4.83-.94,11.28,11.28,0,0,1,1.76.13l.3.05a7.64,7.64,0,0,0-4.39,7.32c0,6.23,4.76,13.31,5.25,14,2.33,5.36,6.19,5.67,6.32,5.65l1.73.08-1.33-1.13a10.79,10.79,0,0,1-2.79-4.09,15.41,15.41,0,0,1-.56-1.66c-.11-.42-.15-.65-.15-.65v-.06l0-.06A32.5,32.5,0,0,1,459,515c0-.58,0-1,.05-1.31,0-.1,0-.19,0-.25l3.49-3.71c1.26.51,2.5.95,3.72,1.34a4.26,4.26,0,0,0-.8,2.42c0,2.08,1.62,3.63,3.07,4.69a16.26,16.26,0,0,0,2.54,1.49c0,.19,0,.37,0,.56,0,4,2.81,9.24,2.81,9.28l0,0,0,0a10.57,10.57,0,0,1,1.17,2.3c.31.8.51,1.45.51,1.45l.75,2.5,1.15-7.38v0c0-.44,0-.87,0-1.31,0-6.43-3.48-11.94-5.46-14.57a48,48,0,0,0,5.37.73v.16c0,2.23,1.52,5,3,7.29,1.15,1.79,2.28,3.26,2.73,3.83a9.36,9.36,0,0,0-.43,2.56,2.51,2.51,0,0,0,.71,2,1.07,1.07,0,0,0,.67.28.73.73,0,0,1,.21.14,33.79,33.79,0,0,1,3.93,4.68l1.27,1.67-.2-2.09c-.23-2.4-.23-3.32-.39-4.37a30.28,30.28,0,0,0-1.29-4.61,7.65,7.65,0,0,0-.63-2.41,64.23,64.23,0,0,0-3.15-6.46c0-.48.1-1.83.14-2.59a41.58,41.58,0,0,0,5-.67l0,.08c0,1.75.73,5,4.93,8.08a7.52,7.52,0,0,0-.13,1.23,4.26,4.26,0,0,1-.29.88c-.15.37-.31.67-.31.67l-.25.49.48.29.13.08a3.81,3.81,0,0,1,.44.33l.16.17,0,0a15.14,15.14,0,0,0,1.65,3.58,7.6,7.6,0,0,1,.21,1c.08.45.13.85.13.85l.14,1,.82-.66,0,0,.15-.09a23.19,23.19,0,0,0,2.63,2.78,40.8,40.8,0,0,0,7.78,9.4c6.54,5.9,17.12,11.78,33.19,11.78a70.31,70.31,0,0,0,7.16-.37c16.22-1.63,25.42-8.06,30.5-14.7a30.29,30.29,0,0,0,5.56-11.82.2.2,0,0,1,0,0,60,60,0,0,0,19.26-3.49Zm-8.58,1.34a58.92,58.92,0,0,1-10.47,1c.07-.42.11-.81.15-1.18C587.22,525.58,591.08,525.65,594.81,525.59ZM568.2,520.4a32.12,32.12,0,0,1,9.52,3h-.39a72.6,72.6,0,0,1-14.15-3.62C564.88,519.91,566.57,520.1,568.2,520.4Zm-43.42-18.93c19.68,5.72,26.94,19.86,55.26,23.4q-1.18.6-2.67,1.26c-22.45-2.69-37.82-18.78-53.1-22Zm38.33,22.3a130.37,130.37,0,0,0-23.28,3.48,5.6,5.6,0,0,1-.37-2c0-1.46.53-3.35,2.6-5.49.62-.06,6.59-.53,11.09-.54a94.12,94.12,0,0,0,9.94,4.51Zm2.62.94a59.76,59.76,0,0,0,9.46,2.33A53.77,53.77,0,0,1,555.57,531a43.27,43.27,0,0,1-15.09-2.66S548.93,526,565.73,524.72ZM524,505.31v0c8.54,1.75,17.1,7.56,26.89,12.84-3.52.06-6.43.26-8.09.43a1.35,1.35,0,0,0-.29-.8,4.46,4.46,0,0,0-.53-.56c-.34-.32-1.93-1.65-1.94-1.66l-.32-.27-.37.21s-.28.16-.64.33a2.93,2.93,0,0,1-.94.3h0a13.44,13.44,0,0,0-1.57-.27,3.19,3.19,0,0,1-.73-.49c-.28-.23-.51-.45-.51-.45l-.46-.45-.39.47s-.16.19-.37.4l-.3.26-.1.07a3.6,3.6,0,0,1-.62.05c-.62,0-1.35-.13-2.15-.15a2.34,2.34,0,0,1-.41-.39c-.16-.19-.29-.37-.29-.37l-.41-.55-.48.48s-.25.23-.54.47a4.2,4.2,0,0,1-.44.3l-.16.08h0c-.92,0-1.86.05-2.83.1a3,3,0,0,1-1-.37c-.4-.2-.71-.4-.71-.4l-.4-.25-.33.33s-.26.26-.57.51a4.42,4.42,0,0,1-.47.34l-.18.1h0c-.46.05-1,.08-1.46.15a2.82,2.82,0,0,1-.5-.37c-.16-.15-.28-.28-.28-.28l-.56-.61-.41.73a5.24,5.24,0,0,1-.31.49,2.2,2.2,0,0,1-.23.31v0l-2,.3a13.41,13.41,0,0,0-5.84-4c-.51-.21-1-.37-1.46-.52a15.48,15.48,0,0,0-7.83-3.64,24.85,24.85,0,0,1,3.49-1c2.81-.67,6.42-1.3,9.31-1.77,2.53-.41,4.52-.68,5-.73l4.68.94a1.77,1.77,0,0,0,.33,0,1,1,0,0,0,.83-.4.92.92,0,0,0,.12-.23Zm-3.71-10.22c-.85.4-1.6.83-1.79,1.73l0,.19a18.63,18.63,0,0,1-3.09-.52,3,3,0,0,1-1.77-1,.73.73,0,0,1-.1-.33c0-.31.27-.86,1.12-1.6l7.76.77a13.32,13.32,0,0,0-2.12.73Zm53.93,20.41c-7.1,0-14.36-2.42-20.1-5.42A74.52,74.52,0,0,1,543,502.87c-1.36-1.07-3-2.49-3.1-2.56a17.09,17.09,0,0,1,7.5-4.45c2,1.83,8.82,8,12.36,10.54A95.58,95.58,0,0,0,572.22,514c1.22.62,2.26,1.12,3.11,1.51l-1.07,0Zm3.73-.16a87.8,87.8,0,0,1-17.5-9.89c-2-1.46-5.24-4.2-7.94-6.59-1.55-1.37-2.93-2.6-3.82-3.41a13.62,13.62,0,0,1,3.82-.54c7.4,0,14.41,6,19.51,12.12a77.59,77.59,0,0,1,6,8.37l-.11-.05ZM576.27,485c6.05,7.75,7.82,14.75,7.82,20.37a26.11,26.11,0,0,1-1.86,9.7,21.24,21.24,0,0,1-1.28,2.66s0,.05,0,.08A80.79,80.79,0,0,0,573,506.24c-5.2-6.23-12.36-12.55-20.43-12.55-5.71,0-11.77,3.3-14.28,6.59a2.93,2.93,0,0,1-.77-.34.88.88,0,0,0-.47-.1,5.06,5.06,0,0,0-1.34.29l-.28.1-.15-.25a4,4,0,0,0-1-1.16c-.77-.52-1.76-1.25-2.86-2a2.23,2.23,0,0,0-1-.29,5.8,5.8,0,0,0-.69,0,2.05,2.05,0,0,0,0-.51,2,2,0,0,0-.37-1l2.08.08-6.36-3.25c11.41-2.87,32.2-3.56,49.3-8.92a26.69,26.69,0,0,1,1.9,2.17Zm-51.9,5.72-.29-2.11c26.11-5.83,42.48-2.71,67.62-15.63C574.52,486.79,540.2,486.75,524.37,490.71Zm6.27-14.33.93-.27a68.66,68.66,0,0,1,17.53-2.42c7.23,0,15.22,1.39,21.69,6l.05,0c-15.2,3.89-28.65,3.56-47,7.67l0-.23a1.31,1.31,0,0,0-.16-.23,1.1,1.1,0,0,0-.78-.27h-.19l-5.33.43a23.55,23.55,0,0,0,8.6-4.76,32.85,32.85,0,0,0,3.72-3.86,3.72,3.72,0,0,0,.93-2.18Zm-7.43,14.42-4.92-2.51,4.48-.37Zm-9.28-17.4c1-.52,2.06-1,2.93-1.41a9.91,9.91,0,0,1,1.13-.45l.22-.07a1.44,1.44,0,0,0,.65.66,5.43,5.43,0,0,0,2.53.43,22.29,22.29,0,0,0,2.33-.14,1.1,1.1,0,0,0,.29.48c.62.56,1.62.79,4.05.82a3.73,3.73,0,0,1,1.4,2.48,2.44,2.44,0,0,1-.66,1.59,32.1,32.1,0,0,1-3.59,3.72,22.43,22.43,0,0,1-9.19,4.81.44.44,0,0,0,0-.07,2.25,2.25,0,0,0-1-1.7,14.59,14.59,0,0,0-4.59-2.12l-.1-7.15c.61-.33,2-1.1,3.58-1.89Zm-17.22,5.86a50.12,50.12,0,0,1,5.31-3.49c2.08-1.16,4.28-2.05,5.8-2a2.66,2.66,0,0,1,1.3.29s.1,6.27.11,8.06a110.66,110.66,0,0,0-12.8-2.6l.27-.2Zm-65.65,11.31a1.7,1.7,0,0,1,0-.34,1.06,1.06,0,0,1,.07-.18,8.43,8.43,0,0,1,8-5.36,104.35,104.35,0,0,0,2.87,23l-.21.25a11.59,11.59,0,0,1-1.56,1.59,3.29,3.29,0,0,1-1.83.87,1.07,1.07,0,0,1-.66-.22c-6-8.56-6.76-15.45-6.76-18.41,0-.52,0-.91,0-1.18Zm-5.41,3.55a8,8,0,0,1,4.17-3.18c0,.23,0,.49,0,.8,0,3.15.82,10.27,6.91,19a3.83,3.83,0,0,1-.59,1.6,2.68,2.68,0,0,1-2.26,1.16,27.93,27.93,0,0,1-7.24-8.66,23.1,23.1,0,0,1-1.41-3.13c-.13-.37-.22-.63-.28-.83l-.11-.39a.63.63,0,0,0,0-.15,9,9,0,0,1-.25-2.12,7.67,7.67,0,0,1,1.1-4.08ZM421.8,506.4a6.26,6.26,0,0,1,2.18-4.7,28.2,28.2,0,0,0,9,12.58,5.44,5.44,0,0,1-.75,1.14,3.66,3.66,0,0,1-2,1.24,22,22,0,0,1-5.25-3.87,17.1,17.1,0,0,1-1.3-1.46l-.24-.31h0l-.19-.26-.05-.07A8.24,8.24,0,0,1,421.8,506.4Zm2.65,13.47a6.4,6.4,0,0,1-2-4.74,9.7,9.7,0,0,1,.44-2.78,22.34,22.34,0,0,0,6.62,5.32c0,.15,0,.37,0,.61a5.13,5.13,0,0,1-.45,2.27,1.94,1.94,0,0,1-1.83,1.13l-.11,0a8.54,8.54,0,0,1-2.71-1.77Zm24.24-10.08c-.55,1.55-1.62,3.3-2.48,3.66a3.3,3.3,0,0,1-1.34.33,1.64,1.64,0,0,1-.88-.24l-1.3-.82.41,1.49v0a3.82,3.82,0,0,1,.07.73,5.29,5.29,0,0,1-1.71,3.8,7.06,7.06,0,0,1-1.83,1.23c-.29.14-.54.24-.73.31l-.28.1-.57.18.2.57s.19.56.38,1.32a10.72,10.72,0,0,1,.37,2.43,8.42,8.42,0,0,1-.87,3.89,13.09,13.09,0,0,1-1.55,2c-.23.25-.42.44-.56.56l-.2.18-.26.22.05.34s.1.5.2,1.08.2,1.24.22,1.48c0,.58.06,1,.06,1.45a7.92,7.92,0,0,1-.61,3A6.42,6.42,0,0,1,431.8,543a9.72,9.72,0,0,1-3.7.7l-1.22-19.92c.05-.12.14-.33.27-.62,0-.09.09-.19.14-.29a3.16,3.16,0,0,0,2.88-1.77,6.25,6.25,0,0,0,.57-2.82v-.52a5.08,5.08,0,0,0,2.63-1.86,6.71,6.71,0,0,0,.73-1.21,3.86,3.86,0,0,0,3.26-2.06,4.84,4.84,0,0,0,.44-1.14,2.22,2.22,0,0,0,.61.08,5.36,5.36,0,0,0,3.3-1.75,11.81,11.81,0,0,0,1-1,2.5,2.5,0,0,0,.78.48,5.21,5.21,0,0,0,1.83.29A15.49,15.49,0,0,0,449,509a6,6,0,0,1-.25.83Zm1.72-2.49s-.73.26-1.72.52a14.71,14.71,0,0,1-3.4.53,3.92,3.92,0,0,1-1.39-.21,1.12,1.12,0,0,1-.65-.55,102.14,102.14,0,0,1-2.92-23.19v-.16c.32-.56,2-3.38,7.07-3.38a16.68,16.68,0,0,1,3.39.37,38.09,38.09,0,0,0-2.05,12.45A36.54,36.54,0,0,0,451.21,507c-.27.09-.55.19-.82.3Zm5.23-1a14.1,14.1,0,0,0-3.3.4,35.34,35.34,0,0,1-2.42-13,38,38,0,0,1,1.12-9.13,23.41,23.41,0,0,1,.76-2.59c.13-.4.24-.66.29-.79h0a10.29,10.29,0,0,1,6.64-2.44,11.45,11.45,0,0,1,4.18.78c-1.16,1.67-4,6.66-4,15.87a58,58,0,0,0,1.39,12.15c-.63-.29-1.27-.59-1.91-.91l0,0h-.05a10.49,10.49,0,0,0-2.71-.31ZM454.5,515a8.52,8.52,0,0,1,.37-2.49l3.06.73a13.15,13.15,0,0,0-.11,1.83,24.22,24.22,0,0,0,.28,3.57l-3,.23A15,15,0,0,1,454.5,515Zm6.12,12.53a14.65,14.65,0,0,0,2.2,5.13,9.31,9.31,0,0,1-3.19-4.14l0-.05,0,0s-.31-.45-.8-1.25a38.54,38.54,0,0,1-3-6.12l2.41-1.83A39.81,39.81,0,0,0,460.62,527.49Zm-2.38-14.88L456,510.35a7.37,7.37,0,0,1,3.08-2l.57.18c.57.27,1.14.51,1.7.75Zm8.49.26a3.85,3.85,0,0,1,.73-1.41c1,.28,1.9.53,2.82.73a26.06,26.06,0,0,1,1.72,2.3Zm9.62,14.28a10.87,10.87,0,0,1,0,1.19l-.37,2.48a10.33,10.33,0,0,0-1-1.9c-.05-.1-.19-.37-.4-.81a25.5,25.5,0,0,1-2.16-6.63l2.32-2.14a20.14,20.14,0,0,1,1.71,7.8Zm-4.14-12.34a29.25,29.25,0,0,1,2.08,3.76l-2.39.19c-.07,0-.37-.16-.82-.39a13.36,13.36,0,0,1-2.85-1.94,7,7,0,0,1-.85-.94Zm6.44-1.33v-.09c.77,0,1.53.06,2.27.06s1.27,0,1.88,0c0,.88-.11,2.24-.13,2.56l-3.75-.88a5.73,5.73,0,0,1-.27-1.61Zm7.81,11.33V525l0,.11a30.51,30.51,0,0,1,1.27,4.53c.1.61.13,1.23.21,2.29a20.32,20.32,0,0,0-2.93-3.3,1.49,1.49,0,0,0-.82-.37,1.54,1.54,0,0,1-.29-1.07,7.62,7.62,0,0,1,.23-1.66c.07-.27.13-.49.18-.63l2.12-.14a.22.22,0,0,1,0,.08ZM484.64,520c.47,1,.94,2,1.28,2.86.15.37.27.73.37,1l-3.51-1.8a40.42,40.42,0,0,1-2.36-3.66c-.22-.4-.42-.79-.62-1.2l3-.83c0,.09,1,1.72,1.88,3.6Zm-3.7-7.68a48.5,48.5,0,0,1-19.2-4.15,57.43,57.43,0,0,1-1.56-12.76,31.55,31.55,0,0,1,2.1-12.09,17.55,17.55,0,0,1,1.43-2.78c.19-.3.37-.52.46-.66s.1-.12.12-.15l0,0a1.51,1.51,0,0,1,.3-.18c.73-.37,2.93-1.07,8.49-1.06A149.88,149.88,0,0,1,494,480.34c9.12,1.33,14.44,2.61,17.44,3.71a10.46,10.46,0,0,1,2.9,1.46c.51.41.56.67.56.78a.64.64,0,0,1-.24.42l-.21.16-.07,0-.7.37,12.26,6.27-2-.61c-1.18-.36-3.22-1-5.05-1.37a25.31,25.31,0,0,0-5-.61,11.8,11.8,0,0,0-1.63.1,4.59,4.59,0,0,0-4,3.09,3.72,3.72,0,0,0-.16,1,2.93,2.93,0,0,0,1.78,2.6,10.73,10.73,0,0,0,3.89,1c.71.07,1.45.1,2.2.1a32.34,32.34,0,0,0,3.44-.19,12.06,12.06,0,0,0,1.72-.39l.58.22a19.63,19.63,0,0,1,1.83.8,4.23,4.23,0,0,1,.5.3c-.19,1-.89,4.89-.95,5.16h0l-4.76-1h-.2s-3.91.52-8.21,1.27c-2.15.37-4.39.81-6.3,1.27a18.8,18.8,0,0,0-4.39,1.44l-.35.16a36.43,36.43,0,0,1-17.9,4.33Zm9.21.47v-.33a35.22,35.22,0,0,0,8.22-2.91,13.74,13.74,0,0,1,6.72,1.89l.09.05c-4.2,1.37-7,3-8.82,4.84a9.16,9.16,0,0,0-2.15,3.3c-3.58-2.81-4.06-5.45-4.07-6.84Zm7.4,17.11c-.07,0-.3-.4-.37-.38v-.13c0-.25-.09-.5-.15-.73a2.17,2.17,0,0,0-.21-.62,14.08,14.08,0,0,1-1.54-3.33,2,2,0,0,0-.77-.92l-.08-.06.11-.26a4.32,4.32,0,0,0,.37-1.31,7.13,7.13,0,0,1,2.27-5c1.61-1.64,4.2-3.18,8.22-4.5l1,.23c1.88.47,5.57,1.72,7.66,4.05a45,45,0,0,0-10.35,3,14.67,14.67,0,0,0-4.56,3,6,6,0,0,0-1.81,4.15,6.51,6.51,0,0,0,.52,2.49c-.15-.1-.17.25-.31.26Zm80.05,9c-4.89,6.38-13.71,12.62-29.66,14.24-2.46.25-4.81.37-7,.37-15.77,0-26-5.74-32.39-11.47a40.61,40.61,0,0,1-6.77-7.87c-.7-1.08-1.19-2-1.52-2.59-.16-.31-.28-.55-.37-.71a2.16,2.16,0,0,1-.1-.24l0,0,0,0a6.37,6.37,0,0,1-1.15-3.39,4.77,4.77,0,0,1,1.48-3.34c2.91-3.11,10.12-5.19,17.72-6.23a1,1,0,0,0,.62-.37,3.25,3.25,0,0,0,.31-.39,2.93,2.93,0,0,0,.41.3,1.34,1.34,0,0,0,.68.22h.12c.46-.06,1-.1,1.46-.16a1.75,1.75,0,0,0,.73-.28,7.25,7.25,0,0,0,.91-.7l.42.22a3.91,3.91,0,0,0,1.57.49h.07c1,0,1.9-.08,2.82-.1a1.68,1.68,0,0,0,.73-.25,6,6,0,0,0,.73-.52l0,0a3.3,3.3,0,0,0,.43.41,1.16,1.16,0,0,0,.68.28c.69,0,1.44.14,2.23.15a4.55,4.55,0,0,0,.88-.08,2.2,2.2,0,0,0,1-.66l0,0,.19.16a4.41,4.41,0,0,0,.59.42,1.74,1.74,0,0,0,.71.29,12,12,0,0,1,1.5.26h.22a3.83,3.83,0,0,0,1.43-.41l.37-.18.53.45c.44.37.93.79,1.05.91a3.41,3.41,0,0,1,.4.41l0,.06-.12.13c-2.49,2.45-3.24,4.8-3.24,6.65a6.54,6.54,0,0,0,1.15,3.79l.1.14.15.06a44.55,44.55,0,0,0,15.89,2.9,57.15,57.15,0,0,0,27.83-7.78A28.06,28.06,0,0,1,577.61,538.87Z" transform="translate(-420.61 -469.32)" style="fill:#231f20"/></svg>